<svg xmlns="http://www.w3.org/2000/svg" xmlns:xlink="http://www.w3.org/1999/xlink" width="26" height="26" viewBox="0 0 26 26">
    <defs>
        <path id="a" d="M11.667 8.938V5c0-2.757-2.243-5-5-5-2.758 0-5 2.243-5 5v3.938A6.631 6.631 0 0 0 0 13.333 6.674 6.674 0 0 0 6.667 20a6.674 6.674 0 0 0 6.666-6.667c0-1.684-.632-3.22-1.666-4.395zM7.5 14.847v1.82H5.833v-1.82A2.497 2.497 0 0 1 4.167 12.5c0-1.378 1.121-2.5 2.5-2.5 1.378 0 2.5 1.122 2.5 2.5A2.495 2.495 0 0 1 7.5 14.847zM10 7.568a6.616 6.616 0 0 0-6.667 0V5a3.337 3.337 0 0 1 3.334-3.333A3.337 3.337 0 0 1 10 5v2.568z"/>
    </defs>
    <g fill="none" fill-rule="evenodd" transform="translate(6 3)">
        <mask id="b" fill="#fff">
            <use xlink:href="#a"/>
        </mask>
        <use fill="#fff" fill-rule="nonzero" xlink:href="#a"/>
        <g fill="#fff" mask="url(#b)">
            <path d="M-4.167-.833h22v22h-22z"/>
        </g>
    </g>
</svg>
