<svg xmlns="http://www.w3.org/2000/svg" xmlns:xlink="http://www.w3.org/1999/xlink" width="288" height="140" viewBox="0 0 288 140">
    <defs>
        <path id="a" d="M60.87 0C27.305 0 0 27.305 0 60.87v73.043a6.09 6.09 0 0 0 2.886 5.178 6.102 6.102 0 0 0 5.923.267l21.902-10.952 27.897 11.16a6.131 6.131 0 0 0 4.523 0l27.897-11.16 21.902 10.952a6.098 6.098 0 0 0 5.923-.267 6.09 6.09 0 0 0 2.886-5.178V60.87C121.74 27.305 94.434 0 60.87 0zM36.522 79.13c-6.724 0-12.174-5.45-12.174-12.173 0-6.724 5.45-12.174 12.174-12.174 6.723 0 12.174 5.45 12.174 12.174 0 6.723-5.45 12.173-12.174 12.173zm48.695 0c-6.723 0-12.174-5.45-12.174-12.173 0-6.724 5.451-12.174 12.174-12.174 6.724 0 12.174 5.45 12.174 12.174 0 6.723-5.45 12.173-12.174 12.173z"/>
    </defs>
    <g fill="none" fill-rule="evenodd">
        <path fill="#FFF" d="M38.916 117V98.88H.756V87.6l32.88-50.64h19.32v49.56h10.68v12.36h-10.68V117h-14.04zm0-67.44l-24.36 36.96h24.36V49.56zM262.916 117V98.88h-38.16V87.6l32.88-50.64h19.32v49.56h10.68v12.36h-10.68V117h-14.04zm0-67.44l-24.36 36.96h24.36V49.56z"/>
        <g transform="translate(83)">
            <mask id="b" fill="#fff">
                <use xlink:href="#a"/>
            </mask>
            <use fill="#FFF" fill-rule="nonzero" xlink:href="#a"/>
            <g fill="#FFF" mask="url(#b)">
                <path d="M-40.53-30.92h208v208h-208z"/>
            </g>
        </g>
    </g>
</svg>
