<svg xmlns="http://www.w3.org/2000/svg" xmlns:xlink="http://www.w3.org/1999/xlink" width="571" height="334" viewBox="0 0 571 334">
    <defs>
        <path id="a" d="M120.77 0C54.07 0 0 54.07 0 120.77c0 66.698 54.07 120.768 120.77 120.768 66.698 0 120.768-54.07 120.768-120.769A120.77 120.77 0 0 0 120.77 0zM44.674 125.801l20.128-20.128-20.128-20.128 10.678-10.678L75.48 94.995l20.128-20.128 10.678 10.678-20.128 20.128 20.128 20.128-10.678 10.678-20.128-20.128-20.128 20.128-10.678-10.678zm76.094 85.545c-16.675 0-30.192-13.517-30.192-30.192s13.517-30.192 30.192-30.192 30.193 13.517 30.193 30.192-13.518 30.192-30.193 30.192zm76.095-85.545l-10.678 10.678-20.128-20.128-20.129 20.128-10.678-10.678 20.129-20.128-20.129-20.128 10.678-10.678 20.129 20.128 20.128-20.128 10.678 10.678-20.128 20.128 20.128 20.128z"/>
        <path id="c" d="M63.462 0C28.412 0 0 28.413 0 63.462c0 35.048 28.413 63.461 63.462 63.461 35.048 0 63.461-28.413 63.461-63.461A63.462 63.462 0 0 0 63.462 0zM23.475 66.106l10.577-10.577-10.577-10.577 5.612-5.611 10.576 10.577L50.24 39.34l5.611 5.61L45.275 55.53 55.85 66.106l-5.61 5.61L39.662 61.14 29.087 71.717l-5.612-5.611zm39.987 44.952c-8.763 0-15.866-7.103-15.866-15.866 0-8.762 7.103-15.865 15.866-15.865 8.762 0 15.865 7.103 15.865 15.865 0 8.763-7.103 15.866-15.865 15.866zm39.986-44.952l-5.611 5.61L87.26 61.14 76.683 71.717l-5.611-5.611 10.577-10.577-10.577-10.577 5.61-5.611L87.26 49.918 97.837 39.34l5.61 5.61L92.872 55.53l10.577 10.577z"/>
        <path id="e" d="M72.308 34.645c0 .253-.046.5-.04.753.007.253.04.5.04.753 0 19.967-16.187 36.154-36.154 36.154C16.187 72.305 0 56.118 0 36.151c0-.253.048-.5.04-.753-.01-.253-.04-.5-.04-.753.005-1.512.186-3.019.54-4.49C3.447 12.753 18.508 0 36.153 0c17.645 0 32.705 12.752 35.614 30.156.353 1.47.534 2.977.54 4.489zm-19.584 4.519a4.52 4.52 0 1 1 0-9.039 4.52 4.52 0 0 1 0 9.039zm13.17-7.613h-.01C64.28 24.623 57.58 20.124 50.56 21.26c-7.02 1.137-11.957 7.52-11.293 14.6.664 7.081 6.702 12.435 13.811 12.247 7.109-.189 12.855-5.855 13.144-12.96-.021-.675-.036-1.356-.103-2.019v-.105c-.05-.5-.15-.982-.226-1.473zm-46.31 7.613a4.52 4.52 0 1 1 0-9.039 4.52 4.52 0 0 1 0 9.039zM6.076 35.148h-.01c.285 7.15 6.065 12.856 13.219 13.048 7.153.193 13.231-5.194 13.9-12.319.668-7.125-4.302-13.548-11.367-14.69-7.065-1.14-13.804 3.39-15.414 10.364-.075.49-.174.973-.226 1.473v.105c-.066.663-.081 1.344-.102 2.019z"/>
    </defs>
    <g fill="none" fill-rule="evenodd">
        <g transform="translate(329.23 43.23)">
            <mask id="b" fill="#fff">
                <use xlink:href="#a"/>
            </mask>
            <use fill="#FFF" fill-rule="nonzero" xlink:href="#a"/>
            <g fill="#FFF" mask="url(#b)">
                <path d="M-306.955-306.955h855v855h-855z"/>
            </g>
        </g>
        <g transform="translate(.038 207.038)">
            <mask id="d" fill="#fff">
                <use xlink:href="#c"/>
            </mask>
            <use fill="#FFF" fill-rule="nonzero" xlink:href="#c"/>
            <g fill="#FFF" mask="url(#d)">
                <path d="M-161.298-161.298h450v450h-450z"/>
            </g>
        </g>
        <g transform="translate(118.846 .846)">
            <mask id="f" fill="#fff">
                <use xlink:href="#e"/>
            </mask>
            <use fill="#FFF" fill-rule="nonzero" xlink:href="#e"/>
            <g fill="#FFF" mask="url(#f)">
                <path d="M-117.5-117.5h307v307h-307z"/>
            </g>
        </g>
    </g>
</svg>
