<?xml version="1.0" encoding="UTF-8"?>
<svg width="50px" height="50px" viewBox="0 0 50 50" version="1.1" xmlns="http://www.w3.org/2000/svg" xmlns:xlink="http://www.w3.org/1999/xlink">
    <!-- Generator: Sketch 52.5 (67469) - http://www.bohemiancoding.com/sketch -->
    <title>Misc/label-on-air-triangle</title>
    <desc>Created with Sketch.</desc>
    <g id="Misc/label-on-air-triangle" stroke="none" stroke-width="1" fill="none" fill-rule="evenodd">
        <polygon id="Path-6" fill="#00B074" points="0 0 50 0 0 50"></polygon>
        <path d="M3,4.625 L3,3 L3.08125,3 C10.23125,3 16,8.76875 16,15.91875 L16,16 L14.375,16 L14.375,15.91875 C14.375,9.6625 9.3375,4.625 3,4.625 Z M3,7.875 L3,6.25 C8.38477631,6.25 12.75,10.6152237 12.75,16 L11.125,16 C11.125,11.5126864 7.48731359,7.875 3,7.875 Z M3,11.125 L3,9.5 C6.58985087,9.5 9.5,12.4101491 9.5,16 L7.875,16 C7.875,13.3076118 5.69238816,11.125 3,11.125 Z M3,12.75 C4.79492544,12.75 6.25,14.2050746 6.25,16 L3,16 L3,12.75 Z" id="onair-icon" fill="#FFFFFF" fill-rule="nonzero" transform="translate(9.500000, 9.500000) rotate(-270.000000) translate(-9.500000, -9.500000) "></path>
        <path d="M3.63923035,15.6828932 C4.33923385,15.6828932 4.97589415,15.8395583 5.54923035,16.1528932 C6.12256655,16.4662281 6.5742287,16.8978905 6.90423035,17.4478932 C7.234232,17.997896 7.39923035,18.6095565 7.39923035,19.2828932 C7.39923035,19.9562299 7.234232,20.5695571 6.90423035,21.1228932 C6.5742287,21.6762293 6.12256655,22.111225 5.54923035,22.4278932 C4.97589415,22.7445615 4.33923385,22.9028932 3.63923035,22.9028932 C2.93922685,22.9028932 2.30256655,22.7445615 1.72923035,22.4278932 C1.15589415,22.111225 0.704231998,21.677896 0.374230348,21.1278932 C0.0442286976,20.5778905 -0.120769652,19.9628966 -0.120769652,19.2828932 C-0.120769652,18.6095565 0.0442286976,17.997896 0.374230348,17.4478932 C0.704231998,16.8978905 1.1542275,16.4662281 1.72423035,16.1528932 C2.2942332,15.8395583 2.93256015,15.6828932 3.63923035,15.6828932 Z M3.65923035,17.0628932 C3.27256175,17.0628932 2.91256535,17.1612256 2.57923035,17.3578932 C2.24589535,17.5545609 1.98256465,17.8228915 1.78923035,18.1628932 C1.59589605,18.5028949 1.49923035,18.8762245 1.49923035,19.2828932 C1.49923035,19.6962286 1.5975627,20.0728915 1.79423035,20.4128932 C1.990898,20.7528949 2.2542287,21.0228922 2.58423035,21.2228932 C2.914232,21.4228942 3.27256175,21.5228932 3.65923035,21.5228932 C4.04589895,21.5228932 4.4008954,21.4245609 4.72423035,21.2278932 C5.0475653,21.0312256 5.3042294,20.7612283 5.49423035,20.4178932 C5.6842313,20.0745582 5.77923035,19.6962286 5.77923035,19.2828932 C5.77923035,18.8762245 5.6842313,18.5028949 5.49423035,18.1628932 C5.3042294,17.8228915 5.0475653,17.5545609 4.72423035,17.3578932 C4.4008954,17.1612256 4.04589895,17.0628932 3.65923035,17.0628932 Z M14.3249823,15.7928932 L15.8249823,15.7928932 L15.8249823,22.7928932 L14.3849823,22.7928932 L10.9949823,18.2928932 L10.9949823,22.7928932 L9.48498235,22.7928932 L9.48498235,15.7928932 L10.9249823,15.7928932 L14.3249823,20.3128932 L14.3249823,15.7928932 Z M26.9664863,22.7928932 L26.4164863,21.4328932 L23.1764863,21.4328932 L22.6264863,22.7928932 L20.9964863,22.7928932 L24.0364863,15.7928932 L25.6664863,15.7928932 L28.6564863,22.7928932 L26.9664863,22.7928932 Z M23.6964863,20.1628932 L25.9064863,20.1628932 L24.8064863,17.4428932 L23.6964863,20.1628932 Z M30.4322383,15.7928932 L32.0122383,15.7928932 L32.0122383,22.7928932 L30.4322383,22.7928932 L30.4322383,15.7928932 Z M38.9079903,22.7928932 L37.7979903,20.7928932 L36.1879903,20.7928932 L36.1879903,22.7928932 L34.6079903,22.7928932 L34.6079903,15.7928932 L37.6479903,15.7928932 C38.5613282,15.7928932 39.2679878,16.0045578 39.7679903,16.4278932 C40.2679928,16.8512287 40.5179903,17.449556 40.5179903,18.2228932 C40.5179903,18.7628959 40.4063248,19.224558 40.1829903,19.6078932 C39.9596559,19.9912285 39.6346591,20.2828922 39.2079903,20.4828932 L40.6979903,22.7928932 L38.9079903,22.7928932 Z M36.1879903,19.4728932 L37.6479903,19.4728932 C38.0879925,19.4728932 38.4263225,19.3712276 38.6629903,19.1678932 C38.8996582,18.9645589 39.0179903,18.6662285 39.0179903,18.2728932 C39.0179903,17.8862246 38.8996582,17.5945609 38.6629903,17.3978932 C38.4263225,17.2012256 38.0879925,17.1028932 37.6479903,17.1028932 L36.1879903,17.1028932 L36.1879903,19.4728932 Z" id="ON-AIR" fill="#FFFFFF" transform="translate(20.288610, 19.292893) rotate(-45.000000) translate(-20.288610, -19.292893) "></path>
    </g>
</svg>