<svg xmlns="http://www.w3.org/2000/svg" xmlns:xlink="http://www.w3.org/1999/xlink" width="290" height="112" viewBox="0 0 290 112">
    <defs>
        <path id="a" d="M110.77 53.073c0 .387-.07.766-.06 1.154.008.387.06.766.06 1.153 0 30.589-24.797 55.385-55.385 55.385C24.797 110.765 0 85.97 0 55.38c0-.387.074-.766.06-1.153-.014-.388-.06-.767-.06-1.154.008-2.317.286-4.625.826-6.877C5.283 19.536 28.354 0 55.385 0c27.03 0 50.102 19.535 54.558 46.196.54 2.252.818 4.56.826 6.877zm-30 6.923a6.923 6.923 0 1 1 0-13.846 6.923 6.923 0 0 1 0 13.846zm20.173-11.663h-.014C98.471 37.72 88.207 30.829 77.454 32.57c-10.754 1.742-18.318 11.52-17.3 22.367C61.17 65.784 70.42 73.985 81.31 73.697c10.89-.289 19.693-8.968 20.135-19.853-.032-1.034-.055-2.077-.157-3.093v-.161c-.078-.766-.23-1.505-.346-2.257zM30 59.996a6.923 6.923 0 1 1 0-13.846 6.923 6.923 0 0 1 0 13.846zM9.31 53.844h-.015c.436 10.954 9.29 19.694 20.249 19.989 10.959.295 20.27-7.957 21.293-18.872 1.024-10.915-6.59-20.755-17.412-22.503-10.823-1.749-21.147 5.193-23.613 15.875-.115.752-.267 1.49-.346 2.257v.161c-.101 1.016-.124 2.059-.157 3.093z"/>
        <path id="c" d="M55.385 0C24.797 0 0 24.797 0 55.385c0 30.588 24.797 55.384 55.385 55.384 30.588 0 55.384-24.796 55.384-55.384A55.385 55.385 0 0 0 55.385 0zM20.488 57.692l9.23-9.23-9.23-9.231 4.897-4.897 9.23 9.23 9.231-9.23 4.897 4.897-9.23 9.23 9.23 9.231-4.897 4.897-9.23-9.23-9.231 9.23-4.897-4.897zm34.897 39.231c-7.647 0-13.847-6.2-13.847-13.846 0-7.647 6.2-13.846 13.847-13.846 7.647 0 13.846 6.199 13.846 13.846s-6.2 13.846-13.846 13.846zm34.897-39.23l-4.897 4.896-9.231-9.23-9.23 9.23-4.898-4.897 9.23-9.23-9.23-9.231 4.897-4.897 9.23 9.23 9.232-9.23 4.897 4.897-9.231 9.23 9.23 9.231z"/>
    </defs>
    <g fill="none" fill-rule="evenodd">
        <path fill="#FFF" d="M.916 85.08l8.04-9.6c5.4 6.12 12.6 9.48 21.6 9.48 10.08 0 16.44-6.24 16.44-14.04 0-8.64-6.24-14.28-16.08-14.28-6.84 0-12.48 2.16-17.52 6.96l-9.96-2.88V15.96h52.44v12.36h-38.4v23.16c3.84-3.84 10.44-6.96 18.12-6.96 13.44 0 25.56 9.48 25.56 25.8 0 16.68-12.6 27.12-30.48 27.12-13.8 0-23.28-4.68-29.76-12.36z"/>
        <g transform="translate(72.615 .615)">
            <mask id="b" fill="#fff">
                <use xlink:href="#a"/>
            </mask>
            <use fill="#FFF" fill-rule="nonzero" xlink:href="#a"/>
            <g fill="#FFF" mask="url(#b)">
                <path d="M-180-180h471v471h-471z"/>
            </g>
        </g>
        <g transform="translate(178.615 .615)">
            <mask id="d" fill="#fff">
                <use xlink:href="#c"/>
            </mask>
            <use fill="#FFF" fill-rule="nonzero" xlink:href="#c"/>
            <g fill="#FFF" mask="url(#d)">
                <path d="M-140.77-140.77h392v392h-392z"/>
            </g>
        </g>
    </g>
</svg>
