<?xml version="1.0" encoding="UTF-8"?>
<svg width="112px" height="60px" viewBox="0 0 112 60" version="1.1" xmlns="http://www.w3.org/2000/svg" xmlns:xlink="http://www.w3.org/1999/xlink">
    <title>logo-bigfm</title>
    <g id="🔴-I.-Brands-&amp;-Styles" stroke="none" stroke-width="1" fill="none" fill-rule="evenodd">
        <g id="I.-Brands-&amp;-Styles/ci-elements/logo" transform="translate(-9.000000, 0.000000)">
            <g id="logo-bigfm" transform="translate(4.000000, -31.000000)">
                <g id="logo-negative" transform="translate(5.083333, 31.008333)">
                    <g id="bigFM-Logo-ohne-Claim-für-Hintergrund-dunkel" transform="translate(-0.000000, -0.000000)">
                        <path d="M56.2528655,16.2308692 L56.2527419,16.2308692 C54.20426,16.2308692 52.2914449,16.5949256 50.567846,17.3129603 C48.7885953,18.0541374 47.2053627,19.1720618 45.8624223,20.6356283 C44.5149061,22.1051671 43.5020429,23.8953392 42.8517822,25.9567495 C42.2602651,27.8319014 41.9603636,29.9730657 41.9603636,32.3210181 C41.9603636,34.3628943 42.1890308,36.2613129 42.6399343,37.9640169 C42.7511142,38.3831919 42.8777531,38.7978877 43.017501,39.2002659 L42.6779012,45.9931654 C42.642655,46.619004 42.6262068,47.0899382 42.6262068,47.4748974 C42.6262068,49.3474364 42.9926432,51.0898308 43.7151275,52.6535564 C44.4531944,54.2508757 45.5542349,55.6480012 46.9875786,56.8061137 C48.4445434,57.9837603 50.303438,58.8090461 52.670372,59.3290023 C54.6748271,59.7693289 57.0037942,59.9833333 59.7904666,59.9833333 C62.2447121,59.9833333 64.4903251,59.7517855 66.4652229,59.2950353 C68.7491738,58.7656231 70.7102205,57.8567263 72.2941951,56.5936023 L72.2953082,56.5928558 L72.2962975,56.5919848 L72.3005024,56.5886255 C73.9428496,55.2743644 75.2326115,53.4579394 76.0299167,51.3361848 C76.7873999,49.3203126 76.8651888,47.22929 76.8787926,45.4274222 L76.8787926,45.4157266 L76.8787926,45.4051508 L76.8782979,44.3096222 L76.8782979,16.7523184 L60.5198765,16.7523184 C59.5860389,16.504347 58.1300634,16.2308692 56.2528655,16.2308692" id="Fill-1" fill="#FFFFFE"></path>
                        <polygon id="Fill-2" fill="#FFFFFE" points="28.8607895 48.51369 46.9689043 48.51369 46.9689043 16.7523184 28.8607895 16.7523184"></polygon>
                        <path d="M37.9148469,4.0793977 C32.8863953,4.0793977 28.7953677,8.1952508 28.7953677,13.2542166 C28.7953677,18.3133067 32.8863953,22.4291598 37.9148469,22.4291598 C42.9434222,22.4291598 47.0343261,18.3133067 47.0343261,13.2542166 C47.0343261,8.1952508 42.9434222,4.0793977 37.9148469,4.0793977" id="Fill-3" fill="#FFFFFE"></path>
                        <path d="M17.5241416,7.98236614 L0,7.98236614 L0,48.51369 L16.1291358,48.51369 C17.0137525,48.7626568 18.3439548,49.0350148 19.9274348,49.0350148 C22.555314,49.0350148 24.9908852,48.3261872 27.1667479,46.9281907 C29.3691999,45.5128996 31.0838945,43.4200107 32.2632185,40.7077531 C33.334949,38.2470751 33.8783581,35.4205988 33.8783581,32.3070829 C33.8783581,29.905505 33.5578036,27.7122082 32.9252279,25.7881588 C32.2796667,23.8236726 31.2989578,22.106038 30.0108036,20.6830328 C28.6881452,19.2205861 27.148321,18.0988046 25.4348631,17.3492913 C23.7379771,16.6072433 21.8707965,16.2308692 19.884892,16.2308692 C19.0790536,16.2308692 18.289787,16.2925821 17.5241416,16.4150126 L17.5241416,7.98236614" id="Fill-4" fill="#FFFFFE"></path>
                        <path d="M89.8870977,0 C88.3989678,0 86.9113327,0.150922909 85.4654983,0.448538405 C84.0558994,0.738813052 82.6693032,1.17179881 81.3442951,1.73567566 C80.0436501,2.28910113 78.7892579,2.97403981 77.6159937,3.77157966 C76.4541073,4.56128098 75.3617238,5.46806265 74.3688952,6.46691599 C73.3760666,7.46576934 72.4746307,8.56478175 71.6898163,9.73371887 C70.897087,10.9141027 70.2162796,12.1761069 69.6660686,13.4846446 C69.1057165,14.8176933 68.6753424,16.2127037 68.3868186,17.6309809 C68.0909982,19.0854647 67.9409857,20.5821272 67.9409857,22.0794119 C67.9409857,23.5765721 68.0909982,25.0733591 68.3868186,26.5278428 C68.6753424,27.9459956 69.1057165,29.341006 69.6660686,30.6740547 C70.2162796,31.9827168 70.897087,33.2445966 71.6898163,34.4251049 C72.4746307,35.5939176 73.3760666,36.6930544 74.3688952,37.6919077 C75.3616001,38.6907611 76.4541073,39.5975428 77.6159937,40.3872441 C78.7892579,41.1846595 80.0436501,41.8697226 81.3442951,42.4231481 C82.6693032,42.9869005 84.0558994,43.4200107 85.4654983,43.7102853 C86.9113327,44.0077764 88.3989678,44.1586993 89.8870977,44.1586993 C91.3753512,44.1586993 92.86311,44.0077764 94.3088207,43.7102853 C95.7185433,43.4200107 97.1050158,42.9869005 98.4300239,42.4231481 C99.7306689,41.8697226 100.985061,41.1846595 102.158449,40.3872441 C103.320212,39.5975428 104.412719,38.6907611 105.405547,37.6919077 C106.398252,36.6930544 107.299688,35.5939176 108.084626,34.4251049 C108.877232,33.2445966 109.558163,31.9827168 110.10825,30.6740547 C110.668602,29.341006 111.0991,27.9459956 111.387624,26.5278428 C111.683321,25.0733591 111.833333,23.5765721 111.833333,22.0794119 C111.833333,20.5821272 111.683321,19.0854647 111.387624,17.6309809 C111.0991,16.2127037 110.668602,14.8176933 110.10825,13.4846446 C109.558163,12.1761069 108.877232,10.9141027 108.084626,9.73371887 C107.299688,8.56478175 106.398252,7.46576934 105.405547,6.46691599 C104.412719,5.46806265 103.320212,4.56128098 102.158449,3.77157966 C100.985061,2.97403981 99.7306689,2.28910113 98.4300239,1.73567566 C97.1050158,1.17179881 95.7185433,0.738813052 94.3088207,0.448538405 C92.86311,0.150922909 91.3753512,0 89.8870977,0" id="Fill-5" fill="#FFFFFE"></path>
                        <path d="M59.7904666,58.7391214 C57.0935791,58.7391214 54.8508105,58.5344485 52.934038,58.1132828 C50.7584226,57.6355054 49.0666071,56.8904713 47.7620046,55.8361261 C46.4781788,54.798951 45.4937599,53.5515041 44.8365737,52.1292454 C44.1905178,50.7307512 43.862914,49.1649105 43.862914,47.4748974 C43.862914,47.113205 43.8787439,46.6634224 43.9127533,46.0598552 L44.2650912,39.0143806 C44.1030826,38.5711923 43.9596245,38.1139444 43.8349645,37.6436323 C43.4116396,36.0454421 43.1970709,34.2547723 43.1970709,32.3210181 C43.1970709,30.1009707 43.4775561,28.0864671 44.0304879,26.3332481 C44.6255914,24.4467739 45.5476803,22.8138702 46.7710311,21.4797017 C47.9920322,20.1491415 49.428344,19.1343622 51.0408865,18.4626122 C52.6138545,17.8072857 54.3673817,17.4750812 56.2527419,17.4750812 C58.1544266,17.4750812 59.578495,17.7787933 60.3552708,17.9965304 L75.6415906,17.9965304 L75.6415906,44.3102443 L75.6420853,45.4057729 L75.6420853,45.4180906 C75.6293472,47.1122096 75.5584839,49.0724655 74.8732244,50.896107 C74.1545738,52.8084607 72.9987473,54.4402447 71.5302811,55.6152785 L71.5259526,55.6186378 C70.0871674,56.7659257 68.2912211,57.5949441 66.1880768,58.0824263 C64.3034587,58.5182738 62.1515881,58.7391214 59.7904666,58.7391214" id="Fill-6" fill="#1A1919"></path>
                        <polygon id="Fill-7" fill="#1A1919" points="30.0974968 47.269478 45.732197 47.269478 45.732197 17.9965304 30.0974968 17.9965304"></polygon>
                        <path d="M37.9148469,21.1849479 C33.5683156,21.1849479 30.032075,17.6272483 30.032075,13.2542166 C30.032075,8.88130927 33.5683156,5.32360964 37.9148469,5.32360964 C42.2615018,5.32360964 45.7976189,8.88130927 45.7976189,13.2542166 C45.7976189,17.6272483 42.2615018,21.1849479 37.9148469,21.1849479" id="Fill-8" fill="#1A1919"></path>
                        <path d="M19.9274348,47.7908028 C18.3469229,47.7908028 17.0434335,47.4893303 16.3032642,47.269478 L1.23670724,47.269478 L1.23670724,9.22657808 L16.2874344,9.22657808 L16.2874344,17.959204 C17.4190215,17.6375752 18.6238217,17.4750812 19.884892,17.4750812 C21.7001309,17.4750812 23.4015928,17.8167418 24.941788,18.4903581 C26.4938555,19.1693246 27.8917057,20.1889562 29.0963823,21.5208851 C31.4485994,24.1190485 32.6416509,27.7484147 32.6416509,32.3070829 C32.6416509,35.2476534 32.1331169,37.906161 31.130271,40.2090729 C30.0509966,42.6909025 28.4932401,44.5992748 26.5011521,45.8795689 C24.52712,47.1479185 22.3155165,47.7908028 19.9274348,47.7908028" id="Fill-9" fill="#1A1919"></path>
                        <path d="M110.596626,22.0794119 C110.596626,33.5862572 101.324785,42.9144874 89.8870977,42.9144874 C78.4496581,42.9144874 69.1776929,33.5862572 69.1776929,22.0794119 C69.1776929,10.5724421 78.4496581,1.24421194 89.8870977,1.24421194 C101.324785,1.24421194 110.596626,10.5724421 110.596626,22.0794119" id="Fill-10" fill="#1A1919"></path>
                        <polyline id="Fill-11" fill="#FFFFFE" points="77.4137921 29.896049 72.5498225 29.896049 72.5498225 10.181884 85.8708909 10.181884 85.8708909 14.5041519 77.3685286 14.5041519 77.3685286 17.9616924 84.6324523 17.9616924 84.6324523 22.2829649 77.4137921 22.2829649 77.4137921 29.896049"></polyline>
                        <polyline id="Fill-12" fill="#FFFFFE" points="107.22462 29.896049 102.405914 29.896049 102.405914 20.4593235 99.6291353 25.3284225 96.5445401 25.3284225 96.5441691 25.327676 93.7680087 20.4593235 93.7680087 29.896049 88.9428717 29.896049 88.9428717 29.8946803 88.9494262 10.181884 93.6847783 10.181884 93.6851493 10.1826305 98.087085 18.8733265 102.488897 10.181884 107.22462 10.181884 107.22462 29.896049"></polyline>
                        <path d="M16.5640858,35.0964816 C16.15387,35.0964816 15.8215667,34.2021421 15.8215667,32.6868164 C15.8215667,31.1212245 16.15387,30.2770267 16.5640858,30.2770267 C16.9743016,30.2770267 17.3067285,30.5668036 17.3067285,32.6868164 C17.3067285,34.9052463 16.9743016,35.0964816 16.5640858,35.0964816" id="Fill-13" fill="#FFFFFE"></path>
                        <path d="M59.9320696,35.0964816 C60.3422854,35.0964816 60.6747123,34.2021421 60.6747123,32.6868164 C60.6747123,31.1212245 60.3422854,30.2770267 59.9320696,30.2770267 C59.5218538,30.2770267 59.1893032,30.5668036 59.1893032,32.6868164 C59.1893032,34.9052463 59.5218538,35.0964816 59.9320696,35.0964816" id="Fill-14" fill="#FFFFFE"></path>
                        <polygon id="Fill-15" fill="#E7792B" points="33.5240415 44.1589482 42.3056523 44.1589482 42.3056523 21.1070602 33.5240415 21.1070602"></polygon>
                        <path d="M37.9148469,8.4341395 C35.2729929,8.4341395 33.1238431,10.596331 33.1238431,13.2542166 C33.1238431,15.9122265 35.2729929,18.074418 37.9148469,18.074418 C40.5567009,18.074418 42.7059744,15.9122265 42.7059744,13.2542166 C42.7059744,10.596331 40.5567009,8.4341395 37.9148469,8.4341395" id="Fill-16" fill="#E7792B"></path>
                        <path d="M62.6216605,36.8767001 C61.8812439,37.7668093 60.9432014,38.2112418 59.8066675,38.2112418 C58.7565793,38.2112418 57.8749307,37.7742746 57.1635767,36.8978517 C56.4507387,36.0232951 56.0959274,34.5506459 56.0959274,32.4811481 C56.0959274,30.6576311 56.4449262,29.3199788 57.1415634,28.4649564 C57.8394372,27.6116759 58.6847266,27.18516 59.6768132,27.18516 C60.8709777,27.18516 61.8442663,27.6295925 62.5997708,28.5198261 C63.3550279,29.4095621 63.733584,30.7597809 63.733584,32.5686162 C63.733584,34.5506459 63.3625718,35.9867153 62.6216605,36.8767001 Z M72.5498225,44.3102443 L72.5498225,21.1070602 L64.4049923,21.1070602 L64.4049923,24.766412 C63.3316541,23.2734821 62.179785,22.2030865 60.9483956,21.5567184 C59.7163878,20.9096038 58.1513348,20.585611 56.2536076,20.585611 C53.2843971,20.585611 50.8807329,21.5867039 49.0434807,23.5887654 C47.2069704,25.5916978 46.2887153,28.5027804 46.2887153,32.3210181 C46.2887153,35.6632202 47.0000693,38.3494738 48.4246324,40.3827649 C50.4284691,43.2465675 53.0617898,44.6789043 56.3227395,44.6789043 C57.9915522,44.6789043 59.5443618,44.2943184 60.9841364,43.5234047 C61.9027626,43.0315677 62.8207703,42.2386314 63.7387781,41.1444715 L63.7387781,44.8640431 C63.7387781,46.6661596 63.4068459,47.9280394 62.739395,48.652544 C62.0730571,49.3760533 61.0674905,49.7378701 59.7213347,49.7378701 C58.6792851,49.7378701 57.8156925,49.4991058 57.1265992,49.0223238 C56.6515799,48.6988287 56.2992421,48.1131781 56.0704512,47.2666163 L47.0000693,46.2269528 C46.970512,46.7506416 46.9546821,47.1667061 46.9546821,47.4748974 C46.9546821,49.9532432 47.8683615,51.93266 49.6984408,53.411157 C51.5280255,54.8900273 54.8919929,55.6285915 59.7904666,55.6285915 C61.9323199,55.6285915 63.8343756,55.4351166 65.493913,55.0514016 C67.1564186,54.6659448 68.5260719,54.041848 69.6055936,53.1809778 C70.6840023,52.3179924 71.4872437,51.1107335 71.9811845,49.7963481 C72.4672105,48.5028653 72.5386922,46.956061 72.5503172,45.3946995 L72.5498225,44.3102443 L72.5498225,44.3102443 Z" id="Fill-17" fill="#E7792B"></path>
                        <path d="M19.3325786,36.8978517 C18.6213483,37.7742746 17.739576,38.2112418 16.6894879,38.2112418 C15.5529539,38.2112418 14.6150352,37.7668093 13.8744949,36.8767001 C13.1335835,35.9867153 12.7625714,34.5506459 12.7625714,32.5686162 C12.7625714,30.7597809 13.1412511,29.4095621 13.8965082,28.5198261 C14.651889,27.6295925 15.6253013,27.18516 16.8194658,27.18516 C17.8114287,27.18516 18.6565944,27.6116759 19.3547157,28.4649564 C20.0513528,29.3199788 20.400228,30.6576311 20.400228,32.4811481 C20.400228,34.5506459 20.0455403,36.0232951 19.3325786,36.8978517 Z M19.884892,20.585611 C18.5319343,20.585611 17.2994319,20.8181542 16.184664,21.2802545 C15.0697724,21.7438479 14.0729864,22.4388647 13.1956663,23.3646828 L13.1956663,12.3371079 L4.32847534,12.3371079 L4.32847534,44.1589482 L12.549363,44.1589482 L12.549363,40.7509272 C13.6856497,42.184135 14.7354904,43.1604681 15.6987617,43.6819173 C16.9796194,44.3471974 18.3888473,44.680273 19.9274348,44.680273 C21.7254834,44.680273 23.3613998,44.2062282 24.8367915,43.2582631 C26.3105755,42.3110446 27.4647944,40.8777124 28.2983351,38.9607551 C29.1331125,37.0439222 29.5498828,34.8248702 29.5498828,32.3070829 C29.5498828,28.5302775 28.6369455,25.6326323 26.8097106,23.6142717 C24.9840833,21.5957867 22.6752746,20.585611 19.884892,20.585611 L19.884892,20.585611 Z" id="Fill-18" fill="#E7792B"></path>
                    </g>
                </g>
            </g>
        </g>
    </g>
</svg>
