<svg id="Ebene_1" data-name="Ebene 1" xmlns="http://www.w3.org/2000/svg" viewBox="0 0 108.94 111.93"><defs><style>.cls-1{fill:none;}.cls-2{fill:#fff;}</style></defs><title>logo-antenne-sylt_glyphe_white</title><path class="cls-1" d="M38.4,89.8a33.89,33.89,0,0,1-7.8-21.7A34.28,34.28,0,0,1,52.3,36.2C47.6,54,43,72,38.4,89.8Z" transform="translate(-9.98 -9.89)"/><path class="cls-1" d="M89.8,89.6h0c-4.4-17.1-9.1-35.7-13.6-53.3A34.21,34.21,0,0,1,89.8,89.6Z" transform="translate(-9.98 -9.89)"/><path class="cls-2" d="M66.7,103.5c-.8,3.6.1,5.4,3.5,6.5a23.25,23.25,0,0,0,10.8.7c3.3-.5,6.5-1.4,9.7-2.1a1.94,1.94,0,0,1,2.2.7,30.13,30.13,0,0,0,3.1,2.6,52.91,52.91,0,0,1-27.5,9.8,54.84,54.84,0,0,1-40.4-13.5c2.8-1.1,5.4-2.2,7.9-3.1a1.19,1.19,0,0,1,1.1.4c2.4,3.9,6.2,4.5,10.3,4.3,5.5-.3,10.5-2.3,15.5-4.6A21.9,21.9,0,0,1,66.7,103.5Z" transform="translate(-9.98 -9.89)"/><circle class="cls-2" cx="54.62" cy="61.11" r="2.3"/><circle class="cls-2" cx="54.62" cy="27.41" r="2.3"/><path class="cls-2" d="M117.8,57.7c-4.1-20.4-16.7-33.8-36.1-40.9-3.7-1.3-7.5-2.3-10.9-4.1-1.8-.9-3.7-1.8-5.5-2.6a2.25,2.25,0,0,0-1.6-.1,157.55,157.55,0,0,1-18,7.3,53.58,53.58,0,0,0-23.1,85.1,4.18,4.18,0,0,0,3.5,1.6,42.33,42.33,0,0,0,18.2-4.3c1.6-.8,3.3-1.5,4.7-2.1a21.21,21.21,0,0,0,2.6,3.1c2.1,1.9,4.7,1.6,7.2,1,3.7-.8,6.9-2.6,10.3-4.3a52.37,52.37,0,0,1,6.8-3.1c3.1-1,5.4-.1,7,2.5a2.93,2.93,0,0,1-.9,4.3,6.47,6.47,0,0,1-.9-.8,3.92,3.92,0,0,0-5,.1,3,3,0,0,0,.2,4.3,4.85,4.85,0,0,0,2.3,1.5,24.52,24.52,0,0,0,6.6.5c5-.3,9.6-2,14.2-3.9,1.1-.5,1.5-.4,2,.7.8,1.8,2.1,1.9,3.4.5s2.4-2.8,3.5-4.3C117.5,87.1,120.9,73,117.8,57.7ZM56,20.1c-.9,0-1.4-2.8.1-3.3s6.6-2.7,6.6-2.7a5.92,5.92,0,0,1,1.5-.4,5.92,5.92,0,0,1,1.5.4s5.1,2.2,6.6,2.7,1,3.3.1,3.3H70.3v7.4h8c-3.4,3.1-4,.7-4.6,4.7s2.8,14.2,2.8,14.2H51.9s3.4-10.2,2.8-14.2-1.2-1.6-4.6-4.7h8V20.1ZM66.9,54.8a2.3,2.3,0,1,1-2.3-2.3A2.26,2.26,0,0,1,66.9,54.8ZM38.4,89A33.18,33.18,0,0,1,51.8,37c-4.4,17.2-8.9,34.7-13.4,52Zm26.2,4.5a2.3,2.3,0,1,1,2.3-2.3A2.26,2.26,0,0,1,64.6,93.5Zm-20.8-14c.6-2.7,1.2-5.3,1.8-7.9s1.3-5.1,1.9-7.7A1.3,1.3,0,0,1,49,62.7H78.7c.8,0,1.3.1,1.5,1,1.4,4.9,4.3,15.9,4.3,15.9C71,79.5,57.5,79.5,43.8,79.5Zm46.1,9.3h0c-4.3-16.6-8.8-34.6-13.2-51.6A33.19,33.19,0,0,1,89.9,88.8Z" transform="translate(-9.98 -9.89)"/></svg>