<svg enable-background="new 0 0 1496.4 350" viewBox="0 0 1496.4 350" xmlns="http://www.w3.org/2000/svg"><g fill="#fff"><path d="m278.9 97.4c-29-14.1-59.5-22.5-94.9-21.6-21.5-1.2-44.7 4.1-67.5 11.8-15.4 5.2-24.3 15.5-24.9 32.5-2.1 65.1 23.2 117.8 71.8 160.1 13.5 11.7 28.2 13.2 44.1 4.4 22.9-12.6 42.5-29.3 58.3-49.9 20-26 35.8-54.4 39.9-87.5 3.6-28.4-1.6-37.6-26.8-49.8zm11.6 48.6c-11.9 52.7-40.6 94-86.9 122.4-13.7 8.4-20.9 7.5-33.1-3.4-39.4-35.2-60.1-79.5-63.3-123.3-.9-30.8 2.3-36 23-41.9 49.8-14.3 98.2-10.9 144.4 13.6 16.4 8.8 19.9 14.5 15.9 32.6z"/><path d="m165.9 170.4c0-11-.6-22 .1-33 .8-12.2 6.1-14.8 16.7-8.2 16.6 10.4 32.9 21.1 49 32.2 10.6 7.3 10.5 12-.6 18.8-16.1 10-32.4 19.5-49 28.7-12.4 6.9-16.6 4.5-17-9.2-.3-9.8-.1-19.5-.1-29.3z"/><path d="m454.7 153.9c0 18.3-15.5 29-44.5 29h-59.2v-105.2h56.2c29 0 42.5 11.6 42.5 27.5 0 9.8-5 17.9-14.6 22.7 12.4 4.5 19.6 13.5 19.6 26zm-68.8-51.4v15.6h16.5c8 0 11.6-2.7 11.6-7.8s-3.6-7.8-11.6-7.8zm33.1 47.3c0-5.4-3.9-8.3-11.7-8.3h-21.3v16.5h21.3c7.8.1 11.7-2.8 11.7-8.2z"/><path d="m551.7 156.1v26.8h-87.5v-105.2h85.5v26.8h-50.7v12.3h44.5v25.6h-44.5v13.8h52.7z"/><path d="m555.8 174.5 11.4-25.9c9.9 5.9 23.2 9.6 34.7 9.6 10.1 0 13.7-2.1 13.7-5.7 0-13.2-58.2-2.6-58.2-41.8 0-19.5 16.4-35.5 49-35.5 14.1 0 28.7 3 39.7 9.2l-10.7 25.7c-10.4-5.3-20.1-7.8-29.3-7.8-10.4 0-13.7 3-13.7 6.6 0 12.6 58.2 2.1 58.2 40.9 0 19.2-16.4 35.5-49 35.5-17.6 0-35.3-4.4-45.8-10.8z"/><path d="m679.5 105.2h-30.8v-27.5h97.1v27.5h-30.8v77.7h-35.5z"/><path d="m765.8 147.9c0-21.2 16.7-36.6 39.5-36.6s39.5 15.4 39.5 36.6-16.7 36.6-39.5 36.6-39.5-15.4-39.5-36.6zm55.2 0c0-10.9-7-17.5-15.7-17.5s-15.7 6.6-15.7 17.5 7 17.5 15.7 17.5 15.7-6.6 15.7-17.5z"/><path d="m875 130.7v12h29.2v17.8h-29.2v22.4h-23.6v-70h56.9v17.8z"/><path d="m981.3 156.4h-9.6v26.5h-35.5v-105.2h50.7c29.3 0 48 15.3 48 39.7 0 15.2-7.2 26.6-19.8 33.1l22.1 32.5h-37.9zm3.3-51.4h-12.9v24.7h12.9c9.8 0 14.4-4.7 14.4-12.3.1-7.7-4.6-12.4-14.4-12.4z"/><path d="m1041 130.3c0-31.9 25.1-55 59.4-55s59.4 23.2 59.4 55c0 31.9-25.1 55-59.4 55s-59.4-23.2-59.4-55zm83 0c0-16.4-10.5-26.3-23.6-26.3s-23.6 9.9-23.6 26.3 10.5 26.3 23.6 26.3 23.6-9.9 23.6-26.3z"/><path d="m1165.5 130.3c0-32.3 24.8-55 58.6-55 20.6 0 36.8 7.5 47.2 21l-22.4 20c-6.2-7.8-13.5-12.3-23-12.3-14.7 0-24.7 10.2-24.7 26.3s9.9 26.3 24.7 26.3c9.5 0 16.8-4.5 23-12.3l22.4 20c-10.4 13.5-26.6 21-47.2 21-33.8 0-58.6-22.7-58.6-55z"/><path d="m1321.4 148-8 8.9v26h-34.9v-105.2h34.9v38.2l34.6-38.2h38.6l-42.1 46.3 44.2 58.9h-41z"/><path d="m395 259h-28l-5.5 13h-10.7l25.2-56h10.2l25.3 56h-10.9zm-3.5-8.2-10.5-24.4-10.5 24.5h21z"/><path d="m418.6 216h10.4v47.2h29.3v8.8h-39.7z"/><path d="m466.5 216h10.4v47.2h29.3v8.8h-39.7z"/><path d="m556.4 263.2v8.7h-42v-56h40.9v8.7h-30.5v14.6h27v8.6h-27v15.4z"/><path d="m585.4 266 3.6-8.1c4.5 3.6 11.6 6.2 18.5 6.2 8.7 0 12.4-3.1 12.4-7.3 0-12.1-33.3-4.2-33.3-25 0-9 7.2-16.7 22.6-16.7 6.7 0 13.8 1.8 18.6 5l-3.3 8.1c-5-3-10.6-4.4-15.4-4.4-8.6 0-12.2 3.4-12.2 7.6 0 11.9 33.2 4.2 33.2 24.7 0 9-7.3 16.6-22.6 16.6-8.8.1-17.5-2.7-22.1-6.7z"/><path d="m687.3 235.9c0 12.3-9.1 19.9-23.8 19.9h-12.6v16.2h-10.4v-56h23c14.7 0 23.8 7.5 23.8 19.9zm-10.5 0c0-7-4.7-11.1-13.8-11.1h-12.2v22.2h12.2c9.1 0 13.8-4.1 13.8-11.1z"/><path d="m739.7 263.2v8.7h-42v-56h40.9v8.7h-30.5v14.6h27v8.6h-27v15.4z"/><path d="m747 244c0-16.7 12.8-28.8 30-28.8 9.1 0 17 3.3 22.2 9.4l-6.7 6.3c-4.1-4.4-9.1-6.6-15-6.6-11.6 0-20 8.2-20 19.7s8.4 19.7 20 19.7c5.8 0 10.9-2.2 15-6.6l6.7 6.4c-5.2 6.1-13 9.4-22.2 9.4-17.2-.1-30-12.2-30-28.9z"/><path d="m809.2 216h10.4v56h-10.4z"/><path d="m871 259h-28l-5.5 13h-10.7l25.2-56h10.2l25.3 56h-10.9zm-3.4-8.2-10.6-24.4-10.5 24.5h21.1z"/><path d="m894.6 216h10.4v47.2h29.3v8.8h-39.7z"/><path d="m959.9 266 3.6-8.1c4.5 3.6 11.6 6.2 18.5 6.2 8.7 0 12.4-3.1 12.4-7.3 0-12.1-33.3-4.2-33.3-25 0-9 7.2-16.7 22.6-16.7 6.7 0 13.8 1.8 18.6 5l-3.3 8.1c-5-3-10.6-4.4-15.4-4.4-8.6 0-12.2 3.4-12.2 7.6 0 11.9 33.2 4.2 33.2 24.7 0 9-7.3 16.6-22.6 16.6-8.7.1-17.4-2.7-22.1-6.7z"/><path d="m1025.5 224.8h-18.5v-8.8h47.5v8.8h-18.6v47.2h-10.4z"/><path d="m1099 272-11.4-16.4c-.7.1-1.4.1-2.2.1h-12.6v16.3h-10.4v-56h23c14.7 0 23.8 7.5 23.8 19.9 0 8.5-4.3 14.7-11.9 17.7l12.9 18.4zm-14.1-47.2h-12.2v22.3h12.2c9.1 0 13.8-4.2 13.8-11.2s-4.7-11.1-13.8-11.1z"/><path d="m1162.8 263.2v8.7h-42v-56h40.9v8.7h-30.5v14.6h27v8.6h-27v15.4z"/><path d="m1210.7 259h-28l-5.5 13h-10.7l25.2-56h10.2l25.3 56h-10.9zm-3.4-8.2-10.6-24.5-10.5 24.5z"/><path d="m1285.8 272-.1-37.1-18.4 30.7h-4.6l-18.4-30.2v36.6h-9.9v-56h8.6l22.2 37.1 21.8-37.1h8.6l.1 56z"/><path d="m1306 266 3.6-8.1c4.5 3.6 11.6 6.2 18.5 6.2 8.7 0 12.4-3.1 12.4-7.3 0-12.1-33.3-4.2-33.3-25 0-9 7.2-16.7 22.6-16.7 6.7 0 13.8 1.8 18.6 5l-3.3 8.1c-5-3-10.6-4.4-15.4-4.4-8.6 0-12.2 3.4-12.2 7.6 0 11.9 33.2 4.2 33.2 24.7 0 9-7.3 16.6-22.6 16.6-8.8.1-17.5-2.7-22.1-6.7z"/></g></svg>