<?xml version="1.0" encoding="utf-8"?>
<!-- Generator: Adobe Illustrator 27.4.1, SVG Export Plug-In . SVG Version: 6.00 Build 0)  -->
<svg version="1.1" xmlns="http://www.w3.org/2000/svg" xmlns:xlink="http://www.w3.org/1999/xlink" x="0px" y="0px"
	 viewBox="0 0 595.4 596.1" style="enable-background:new 0 0 595.4 596.1;" xml:space="preserve">
<style type="text/css">
	.st0{fill:#FFFFFF;}
</style>
<g id="Ebene_1">
	<path class="st0" d="M-0.3,0v596.1h596.1V0H-0.3z M576.2,576.6L576.2,576.6l-557.1,0V19.5h0h557.1V576.6z"/>
	<g>
		<path class="st0" d="M313.7,257.3c-3,1.6-8.1,2.4-15.2,2.4c-8.3,0-16.9-1.5-25.8-4.4c-9-2.9-17.1-6.8-24.3-11.6l-16.5,42.8
			c7.7,5.5,17.5,9.8,29.4,13.1c11.9,3.2,24.2,4.9,36.8,4.9c15.2,0,28.1-2.6,38.8-7.8c10.6-5.2,18.6-12.3,24-21.2
			c5.4-8.9,8-18.8,8-29.7c0-12.6-2.9-22.6-8.8-29.9c-5.9-7.3-12.8-12.6-20.7-15.8c-8-3.2-17.7-6.1-29.3-8.6c-9-2-15.4-3.9-19.3-5.6
			c-3.9-1.7-5.9-4.4-5.9-7.8c0-7.3,6.6-11,19.8-11c13.3,0,27.4,4.3,42.3,12.9l15.4-42.6c-7.7-5-16.5-8.8-26.6-11.3
			c-10.1-2.6-20.3-3.9-30.7-3.9c-15.2,0-28.1,2.6-38.8,7.7c-10.6,5.1-18.6,12.2-24,21.2c-5.4,9-8,18.9-8,29.9
			c0,12.6,2.9,22.6,8.7,30c5.8,7.4,12.6,12.7,20.4,15.9c7.8,3.2,17.6,6.3,29.3,9.1c9.1,2.2,15.7,4.1,19.7,6c4,1.8,6,4.6,6,8.2
			C318.3,253.4,316.8,255.8,313.7,257.3z"/>
		<polygon class="st0" points="434,221.4 491.8,300.5 533.9,300.5 533.9,126.3 483.9,126.3 483.9,205.4 426.2,126.3 384.1,126.3 
			384.1,300.5 434,300.5 		"/>
		<path class="st0" d="M100.5,404.5c4.4-2.2,7.9-5.3,10.3-9.3c2.5-4,3.7-8.7,3.7-14c0-5.3-1.2-10-3.7-14c-2.5-4-5.9-7.1-10.3-9.3
			c-4.4-2.2-9.5-3.3-15.3-3.3H61.1v53.1h24.1C91,407.8,96.1,406.7,100.5,404.5z M73.4,397.7v-32.9h11.2c5.3,0,9.5,1.5,12.7,4.4
			c3.2,3,4.7,7,4.7,12c0,5.1-1.6,9.1-4.7,12c-3.2,3-7.4,4.4-12.7,4.4H73.4z"/>
		<polygon class="st0" points="164.9,397.9 136,397.9 136,385.7 160.6,385.7 160.6,376.1 136,376.1 136,364.6 163.9,364.6 
			163.9,354.7 123.7,354.7 123.7,407.8 164.9,407.8 		"/>
		<path class="st0" d="M210.2,384c0,4.9-1,8.5-3,10.8c-2,2.3-5,3.5-8.8,3.5c-7.9,0-11.8-4.8-11.8-14.3v-29.3h-12.3v29.7
			c0,7.8,2.1,13.8,6.3,18c4.2,4.2,10.1,6.3,17.7,6.3c7.6,0,13.5-2.1,17.7-6.3c4.2-4.2,6.3-10.2,6.3-18v-29.7h-12.1V384z"/>
		<polygon class="st0" points="227.5,364.7 244.5,364.7 244.5,407.8 256.8,407.8 256.8,364.7 273.8,364.7 273.8,354.7 227.5,354.7 
					"/>
		<path class="st0" d="M317.5,400.6c1.7-2.5,2.5-5.3,2.5-8.3c0-3.5-0.9-6.3-2.8-8.4c-1.8-2.1-4.1-3.6-6.6-4.6
			c-2.6-1-5.9-1.9-9.9-2.9c-3.9-0.9-6.8-1.7-8.7-2.6c-1.9-0.9-2.8-2.2-2.8-4.1s0.8-3.3,2.5-4.4c1.6-1.1,4.2-1.7,7.6-1.7
			c4.9,0,9.8,1.4,14.7,4.2l3.8-9.3c-2.4-1.5-5.3-2.7-8.5-3.5c-3.2-0.8-6.6-1.2-9.9-1.2c-4.9,0-9,0.7-12.3,2.2
			c-3.4,1.5-5.9,3.5-7.6,6c-1.7,2.5-2.5,5.3-2.5,8.4c0,3.5,0.9,6.4,2.8,8.5c1.8,2.1,4.1,3.7,6.6,4.6c2.6,1,5.9,1.9,9.9,2.9
			c2.6,0.6,4.7,1.2,6.3,1.7c1.5,0.5,2.8,1.2,3.8,2c1,0.8,1.5,1.9,1.5,3.1c0,1.7-0.8,3.1-2.5,4.1c-1.7,1-4.2,1.6-7.7,1.6
			c-3.1,0-6.3-0.5-9.4-1.5c-3.1-1-5.8-2.4-8.1-4l-4.2,9.3c2.4,1.8,5.5,3.3,9.4,4.4c3.9,1.1,8,1.7,12.2,1.7c4.9,0,9-0.7,12.4-2.2
			C313.3,405.1,315.8,403.1,317.5,400.6z"/>
		<path class="st0" d="M366.4,406.3c3.7-1.6,6.9-4,9.4-7.1l-7.9-7.3c-3.6,4.2-8,6.3-13.4,6.3c-3.3,0-6.2-0.7-8.8-2.2
			c-2.6-1.4-4.6-3.5-6-6c-1.4-2.6-2.2-5.5-2.2-8.8c0-3.3,0.7-6.2,2.2-8.8c1.4-2.6,3.5-4.6,6-6c2.6-1.4,5.5-2.2,8.8-2.2
			c5.3,0,9.8,2.1,13.4,6.2l7.9-7.3c-2.5-3-5.7-5.4-9.4-7c-3.7-1.6-7.9-2.4-12.5-2.4c-5.5,0-10.4,1.2-14.8,3.5
			c-4.4,2.4-7.8,5.6-10.3,9.8c-2.5,4.2-3.8,8.9-3.8,14.2c0,5.3,1.3,10,3.8,14.2s5.9,7.4,10.3,9.8c4.4,2.4,9.3,3.5,14.7,3.5
			C358.5,408.7,362.7,407.9,366.4,406.3z"/>
		<polygon class="st0" points="432.8,407.8 432.8,354.7 420.5,354.7 420.5,375.6 396.4,375.6 396.4,354.7 384.1,354.7 384.1,407.8 
			396.4,407.8 396.4,386 420.5,386 420.5,407.8 		"/>
		<polygon class="st0" points="485.6,364.6 485.6,354.7 445.4,354.7 445.4,407.8 486.5,407.8 486.5,397.9 457.6,397.9 457.6,385.7 
			482.3,385.7 482.3,376.1 457.6,376.1 457.6,364.6 		"/>
		<path class="st0" d="M526.1,406.5c3.4-1.5,5.9-3.5,7.6-6c1.7-2.5,2.5-5.3,2.5-8.3c0-3.5-0.9-6.3-2.8-8.4c-1.8-2.1-4.1-3.6-6.6-4.6
			c-2.6-1-5.9-1.9-9.9-2.9c-3.9-0.9-6.8-1.7-8.7-2.6c-1.9-0.9-2.8-2.2-2.8-4.1s0.8-3.3,2.5-4.4c1.6-1.1,4.2-1.7,7.6-1.7
			c4.9,0,9.8,1.4,14.7,4.2l3.8-9.3c-2.4-1.5-5.3-2.7-8.5-3.5c-3.2-0.8-6.6-1.2-9.9-1.2c-4.9,0-9,0.7-12.3,2.2
			c-3.4,1.5-5.9,3.5-7.6,6c-1.7,2.5-2.5,5.3-2.5,8.4c0,3.5,0.9,6.4,2.8,8.5c1.8,2.1,4.1,3.7,6.6,4.6c2.6,1,5.9,1.9,9.9,2.9
			c2.6,0.6,4.7,1.2,6.3,1.7c1.5,0.5,2.8,1.2,3.8,2s1.5,1.9,1.5,3.1c0,1.7-0.8,3.1-2.5,4.1c-1.7,1-4.2,1.6-7.7,1.6
			c-3.1,0-6.3-0.5-9.4-1.5c-3.1-1-5.8-2.4-8.1-4l-4.2,9.3c2.4,1.8,5.5,3.3,9.4,4.4c3.9,1.1,8,1.7,12.2,1.7
			C518.6,408.7,522.8,408,526.1,406.5z"/>
		<path class="st0" d="M81,455.2c-1.6-0.6-3.7-1.2-6.3-1.8c-2.5-0.5-4.3-1.1-5.5-1.6c-1.2-0.6-1.8-1.4-1.8-2.6
			c0-1.1,0.5-2.1,1.6-2.8c1-0.7,2.6-1.1,4.8-1.1c3.1,0,6.2,0.9,9.3,2.6l2.4-5.9c-1.5-1-3.3-1.7-5.4-2.2c-2-0.5-4.1-0.8-6.3-0.8
			c-3.1,0-5.6,0.5-7.8,1.4s-3.7,2.2-4.8,3.8s-1.6,3.3-1.6,5.3c0,2.2,0.6,4,1.7,5.4c1.2,1.3,2.6,2.3,4.2,2.9c1.6,0.6,3.7,1.2,6.3,1.8
			c1.7,0.4,3,0.7,3.9,1.1c1,0.3,1.8,0.7,2.4,1.3c0.6,0.5,0.9,1.2,0.9,2c0,1.1-0.5,2-1.6,2.6c-1.1,0.7-2.7,1-4.9,1c-2,0-4-0.3-5.9-1
			c-2-0.6-3.7-1.5-5.1-2.5l-2.6,5.8c1.5,1.1,3.5,2.1,6,2.8c2.5,0.7,5,1.1,7.7,1.1c3.1,0,5.7-0.5,7.8-1.4c2.1-0.9,3.7-2.2,4.8-3.8
			c1.1-1.6,1.6-3.3,1.6-5.2c0-2.2-0.6-4-1.7-5.3C84,456.8,82.6,455.8,81,455.2z"/>
		<polygon class="st0" points="117.2,439.7 88,439.7 88,446 98.7,446 98.7,473.2 106.4,473.2 106.4,446 117.2,446 		"/>
		<path class="st0" d="M130.2,439.7l-14.9,33.5h7.9l3-7.2h15.5l3,7.2h8.1l-15-33.5H130.2z M128.6,460.1l5.3-12.8l5.3,12.8H128.6z"/>
		<path class="st0" d="M126.8,431.1c-0.6,0.6-1,1.4-1,2.4c0,1,0.3,1.7,1,2.4c0.6,0.6,1.4,0.9,2.4,0.9s1.7-0.3,2.4-0.9
			c0.6-0.6,0.9-1.4,0.9-2.4c0-1-0.3-1.7-0.9-2.4c-0.6-0.6-1.4-0.9-2.4-0.9S127.4,430.5,126.8,431.1z"/>
		<path class="st0" d="M136.4,431.1c-0.6,0.6-0.9,1.4-0.9,2.4c0,1,0.3,1.7,0.9,2.4c0.6,0.6,1.4,0.9,2.4,0.9s1.8-0.3,2.4-0.9
			c0.6-0.6,1-1.4,1-2.4c0-1-0.3-1.7-1-2.4c-0.6-0.6-1.4-0.9-2.4-0.9S137.1,430.5,136.4,431.1z"/>
		<path class="st0" d="M181.1,441.8c-2.8-1.4-6-2.1-9.6-2.1h-15.2v33.5h15.2c3.6,0,6.8-0.7,9.6-2.1c2.8-1.4,5-3.3,6.5-5.9
			c1.5-2.5,2.3-5.4,2.3-8.8c0-3.3-0.8-6.3-2.3-8.8C186.1,445.1,183.9,443.2,181.1,441.8z M179.1,464c-2,1.9-4.7,2.8-8,2.8H164v-20.7
			h7.1c3.3,0,6,0.9,8,2.8c2,1.9,3,4.4,3,7.6C182.1,459.6,181.1,462.2,179.1,464z"/>
		<polygon class="st0" points="191.5,446 202.2,446 202.2,473.2 210,473.2 210,446 220.7,446 220.7,439.7 191.5,439.7 		"/>
		<polygon class="st0" points="232.5,459.2 248.1,459.2 248.1,453.2 232.5,453.2 232.5,445.9 250.1,445.9 250.1,439.7 224.8,439.7 
			224.8,473.2 250.7,473.2 250.7,467 232.5,467 		"/>
		<rect x="254.5" y="456.7" class="st0" width="13.5" height="6"/>
		<polygon class="st0" points="297.4,460 280.8,439.7 274.4,439.7 274.4,473.2 282,473.2 282,452.9 298.7,473.2 305.1,473.2 
			305.1,439.7 297.4,439.7 		"/>
		<polygon class="st0" points="320.7,459.2 336.3,459.2 336.3,453.2 320.7,453.2 320.7,445.9 338.3,445.9 338.3,439.7 313,439.7 
			313,473.2 338.9,473.2 338.9,467 320.7,467 		"/>
		<polygon class="st0" points="341.3,446 352,446 352,473.2 359.8,473.2 359.8,446 370.5,446 370.5,439.7 341.3,439.7 		"/>
		<polygon class="st0" points="409.4,463.4 401.8,439.7 394.6,439.7 386.7,463.2 379.1,439.7 371.1,439.7 382.1,473.2 390.4,473.2 
			398,450.5 405.3,473.2 413.7,473.2 424.6,439.7 417.2,439.7 		"/>
		<path class="st0" d="M454.1,441.4c-2.8-1.5-5.9-2.2-9.4-2.2c-3.5,0-6.6,0.7-9.4,2.2c-2.8,1.5-5,3.6-6.5,6.2
			c-1.6,2.6-2.4,5.6-2.4,8.9c0,3.3,0.8,6.2,2.4,8.9c1.6,2.6,3.8,4.7,6.5,6.2c2.8,1.5,5.9,2.2,9.4,2.2c3.5,0,6.6-0.7,9.4-2.2
			c2.8-1.5,5-3.6,6.5-6.2c1.6-2.6,2.4-5.6,2.4-8.9c0-3.3-0.8-6.2-2.4-8.9C459.1,445,456.9,442.9,454.1,441.4z M453.8,462
			c-0.9,1.6-2.2,2.9-3.8,3.8c-1.6,0.9-3.4,1.4-5.4,1.4c-2,0-3.8-0.5-5.4-1.4c-1.6-0.9-2.8-2.2-3.8-3.8c-0.9-1.6-1.4-3.5-1.4-5.5
			c0-2.1,0.5-3.9,1.4-5.5c0.9-1.6,2.2-2.9,3.8-3.8c1.6-0.9,3.4-1.4,5.4-1.4c2,0,3.8,0.5,5.4,1.4c1.6,0.9,2.8,2.2,3.8,3.8
			c0.9,1.6,1.4,3.5,1.4,5.5C455.2,458.5,454.7,460.4,453.8,462z"/>
		<path class="st0" d="M496.1,458.3c1.2-1.8,1.8-3.9,1.8-6.4c0-2.5-0.6-4.6-1.8-6.5c-1.2-1.8-2.9-3.2-5-4.2c-2.2-1-4.8-1.5-7.7-1.5
			h-14.5v33.5h7.7v-9.3h6.7h0.4l6.5,9.3h8.3l-7.5-10.8C493.2,461.5,494.9,460.1,496.1,458.3z M488.2,456.2c-1.2,1-3,1.5-5.3,1.5
			h-6.3V446h6.3c2.3,0,4.1,0.5,5.3,1.5c1.2,1,1.8,2.4,1.8,4.3C490.1,453.7,489.4,455.1,488.2,456.2z"/>
		<polygon class="st0" points="535.1,439.7 526.5,439.7 511.7,455.3 511.7,439.7 504,439.7 504,473.2 511.7,473.2 511.7,464.7 
			516.2,460 526.9,473.2 535.9,473.2 521.3,454.6 		"/>
		<path class="st0" d="M212,259.7c0.3-0.5,0.5-1,0.8-1.4H62v15h140.6C206.2,269.1,209.3,264.6,212,259.7z"/>
		<path class="st0" d="M181.8,136.9c-13-7.1-27.9-10.6-44.8-10.6H62v97.1h51.2v-51.3h21.5c11,0,19.8,3.6,26.4,10.8
			c6.6,7.2,9.9,17.4,9.9,30.5c0,3.5-0.2,6.9-0.7,10h52c0.3-3.2,0.4-6.6,0.4-10c0-17.8-3.6-33.2-10.7-46.3
			C204.8,154,194.8,143.9,181.8,136.9z"/>
		<path class="st0" d="M221,233.3h-53.4c-1.6,4-3.8,7.6-6.5,10.6c-1.5,1.7-3.1,3.1-4.9,4.4h60.8C218.8,243.6,220.1,238.6,221,233.3z
			"/>
		<path class="st0" d="M181.8,290c3.7-2,7.1-4.3,10.4-6.8H62v17.4H137C153.9,300.5,168.8,297,181.8,290z"/>
		<rect x="62" y="233.3" class="st0" width="51.2" height="15"/>
	</g>
</g>
<g id="Ebene_2">
</g>
<g id="Ebene_3">
</g>
<g id="Ebene_4">
</g>
</svg>
