
<svg width="54px" height="53px" viewBox="0 0 54 53" version="1.1" xmlns="http://www.w3.org/2000/svg" xmlns:xlink="http://www.w3.org/1999/xlink">
    <defs>
        <polygon id="path-1" points="53.9859964 52.9020261 0 52.9020261 0 0 53.9859964 0 53.9859964 52.9020261"></polygon>
    </defs>
    <g id="Startseite" stroke="none" stroke-width="1" fill="none" fill-rule="evenodd">
        <g transform="translate(-1348.000000, -85.000000)" id="Header">
            <g>
                <g id="Navigation" transform="translate(0.000000, 46.000000)">
                    <g id="music-icon" transform="translate(1348.000000, 39.000000)">
                        <mask id="mask-2" fill="white">
                            <use xlink:href="#path-1"></use>
                        </mask>
                        <g id="Clip-2"></g>
                        <path d="M53.1466321,30.7022659 C52.6831554,30.7022659 52.3072539,30.3304356 52.3072539,29.8719786 L52.3072539,25.1980152 C52.2584301,24.8557985 52.2145026,24.5138585 52.1705751,24.1723337 C52.0913938,23.5557071 52.0165492,22.9731223 51.9138653,22.3894303 C50.9869119,17.1130935 48.5404041,12.5301849 44.6423316,8.7680152 C40.7421606,5.00487682 36.1120104,2.71619014 30.8805855,1.96574888 C27.6149845,1.48694993 24.4356995,1.57219275 21.4283472,2.21829458 C20.9759223,2.31613009 20.5285337,2.03134157 20.4300466,1.58312486 C20.3316995,1.13504653 20.6190466,0.692918598 21.072171,0.595636613 C24.2778964,-0.0932250055 27.6600311,-0.185110123 31.1240052,0.322748885 C36.7116062,1.1242528 41.6549845,3.56585071 45.8146632,7.57945907 C49.9707047,11.5905766 52.5790725,16.4776471 53.5678601,22.105057 C53.6771192,22.7261118 53.7578394,23.354916 53.8360415,23.9631014 C53.881228,24.3155583 53.9265544,24.6687071 53.9774767,25.0218559 C53.9830725,25.0607411 53.9860104,25.1000413 53.9860104,25.1393416 L53.9860104,29.8719786 C53.9860104,30.3304356 53.6101088,30.7022659 53.1466321,30.7022659 M15.0388601,33.6221092 C14.5752435,33.6221092 14.1994819,33.2502789 14.1994819,32.791822 L14.1994819,27.9761562 C14.1994819,27.7198742 14.1257565,27.5080126 13.9917358,27.3793181 C13.8711451,27.2636314 13.7013109,27.209386 13.4830725,27.2146444 C10.5711295,27.2813442 8.03620725,28.2066993 5.94335751,29.9651092 C5.63460622,30.2197306 5.33998446,30.4984303 5.02801554,30.7935974 C4.84810881,30.9638063 4.66442487,31.1374747 4.47178756,31.3129421 C4.23466321,31.5290935 3.89345596,31.5916418 3.59365803,31.4740178 C3.294,31.3565322 3.08891192,31.0796314 3.06582902,30.761493 L3.05799482,30.6552162 C3.04610363,30.4970465 3.0357513,30.3601875 3.0357513,30.2179317 L3.0357513,26.7860779 C3.0357513,23.6617071 3.57743005,20.7015948 4.64581865,17.9880779 C4.81411399,17.5607567 5.30053368,17.3493102 5.73253368,17.5157828 C6.16453368,17.6822554 6.37829534,18.1635452 6.2101399,18.5908664 C5.21771503,21.1113416 4.71450777,23.868587 4.71450777,26.7860779 L4.71450777,28.8188977 C4.76333161,28.7771066 4.81257513,28.7355922 4.86265803,28.6943546 C7.25026943,26.6882424 10.1375907,25.6303181 13.4385855,25.5546236 C14.1004352,25.5360805 14.7152798,25.7598429 15.1608497,26.1877176 C15.623487,26.6319212 15.8782383,27.2669525 15.8782383,27.9761562 L15.8782383,32.791822 C15.8782383,33.2502789 15.5024767,33.6221092 15.0388601,33.6221092 M53.1326425,33.7051379 C52.6691658,33.7051379 52.2932642,33.333446 52.2932642,32.8748507 L52.2932642,32.6396027 C52.2932642,32.1811458 52.6691658,31.8093155 53.1326425,31.8093155 C53.5962591,31.8093155 53.9720207,32.1811458 53.9720207,32.6396027 L53.9720207,32.8748507 C53.9720207,33.333446 53.5962591,33.7051379 53.1326425,33.7051379 M15.0388601,36.9079708 C14.5752435,36.9079708 14.1994819,36.5361405 14.1994819,36.0776836 L14.1994819,36.0376914 C14.1994819,35.5790961 14.5752435,35.2074042 15.0388601,35.2074042 C15.5024767,35.2074042 15.8782383,35.5790961 15.8782383,36.0376914 L15.8782383,36.0776836 C15.8782383,36.5361405 15.5024767,36.9079708 15.0388601,36.9079708 M3.10639896,46.8930048 C2.84339378,46.8930048 2.5843057,46.7709525 2.42076684,46.5424852 C1.17303109,44.8002659 0.394367876,42.7828063 0.106041451,40.5465661 C0.0938704663,40.4703181 0.0789015544,40.3939317 0.0640725389,40.3176836 C0.044626943,40.2173572 0.0253212435,40.1170309 0.00965284974,40.0167045 C0.00335751295,39.9750518 0,39.9328455 0,39.8906392 L0,25.1393416 C0,25.0936758 0.00377720207,25.0481484 0.0114715026,25.0030361 C0.0290984456,24.897728 0.0514818653,24.7924199 0.0735854922,24.6898794 C0.0857564767,24.6334199 0.0979274611,24.5780674 0.108139896,24.5243755 C0.148150259,24.2271327 0.183544041,23.9179891 0.217818653,23.6186706 C0.289725389,22.9893129 0.364150259,22.3385061 0.491455959,21.6991849 C1.69176684,15.5478638 4.72360104,10.3966236 9.50190155,6.39173322 C11.9202902,4.36763139 14.5324352,2.80738335 17.2662902,1.75416403 C17.6985699,1.58769144 18.1848497,1.79913792 18.3531451,2.22659745 C18.5214404,2.65378022 18.3075389,3.13507003 17.8755389,3.30154262 C15.3150155,4.2880622 12.8626321,5.75407264 10.586658,7.65902826 C6.10815544,11.4127567 3.26574093,16.2436444 2.13915544,22.0170465 C2.02458031,22.592574 1.95715026,23.1816627 1.88594301,23.8053468 C1.84998964,24.1197489 1.8127772,24.4449447 1.76926943,24.765574 C1.76745078,24.7781666 1.76549223,24.7907593 1.76311399,24.803352 C1.74940415,24.8783546 1.73261658,24.95654 1.71540933,25.036386 C1.70295855,25.0942293 1.69008808,25.1531797 1.67875648,25.2124068 L1.67875648,39.8238011 C1.68910881,39.8839969 1.701,39.943916 1.7126114,40.0041118 C1.73205699,40.1041614 1.75136269,40.204211 1.76689119,40.304399 C1.76801036,40.3114565 1.76912953,40.3187907 1.76996891,40.3261249 C2.02206218,42.2936288 2.70181865,44.0621405 3.79063212,45.5826732 C4.05853368,45.9568559 3.9691399,46.4749552 3.5908601,46.7400935 C3.44354922,46.8433259 3.27413472,46.8930048 3.10639896,46.8930048 M13.2862383,52.2978977 C13.1850933,52.2978977 13.0808705,52.2945766 12.9735699,52.288211 C10.223487,52.142634 7.75235751,51.2985087 5.63460622,49.7789447 C5.25940415,49.5097933 5.17574611,48.990587 5.44798446,48.619587 C5.7202228,48.2484486 6.24497409,48.1655583 6.62031606,48.4349865 C8.47184456,49.7633076 10.6414974,50.5018481 13.0692591,50.6304042 C13.5278394,50.6573886 13.8549171,50.600929 13.9953731,50.4702972 C14.1270155,50.3476914 14.1994819,50.0551536 14.1994819,49.6465139 L14.1994819,39.3787672 C14.1994819,38.9203102 14.5752435,38.54848 15.0388601,38.54848 C15.5024767,38.54848 15.8782383,38.9203102 15.8782383,39.3787672 L15.8782383,49.6465139 C15.8782383,50.5556784 15.6387358,51.2206001 15.1458808,51.6794721 C14.7003109,52.094339 14.0898031,52.2978977 13.2862383,52.2978977 M49.2436632,31.147023 C49.2435233,31.1508977 49.2435233,31.1549108 49.2435233,31.1589238 C49.2435233,31.1549108 49.2435233,31.1508977 49.2436632,31.147023 M40.5032176,52.90207 C39.8522798,52.90207 39.2582798,52.6824591 38.8225026,52.274788 C38.3525907,51.835151 38.0937824,51.2015035 38.0937824,50.4907776 L38.0937824,28.5711954 C38.0937824,27.8564565 38.3397202,27.2449499 38.8047358,26.802822 C39.2792642,26.351976 39.9609793,26.119634 40.7154404,26.1500779 C44.0164352,26.2766967 46.8854301,27.3714303 49.2649275,29.4089552 C49.3073161,26.2793259 49.3089948,23.3129865 48.3480466,20.4165296 C45.6508446,12.2754251 40.196285,7.18521103 32.1357358,5.28675933 C23.8528912,3.3407045 16.6068187,5.53349301 10.5977098,11.8032685 C9.75021762,12.6955505 8.99183938,13.6253337 8.34621762,14.5636967 C8.08531088,14.9427228 7.56321762,15.0409734 7.18004145,14.7828925 C6.79686528,14.5249499 6.69753886,14.0085113 6.9584456,13.6293468 C7.65317098,12.6194408 8.46694819,11.6217123 9.3768342,10.6635609 C12.5477254,7.35500476 16.108228,5.08112486 19.9618135,3.90197865 C23.865342,2.7076105 28.0918912,2.62997865 32.5240881,3.67129719 C36.8674508,4.69421103 40.5563782,6.615634 43.4890259,9.38228935 C46.3557824,12.0868115 48.5272539,15.6250805 49.943285,19.8989839 C51.0312591,23.1783416 50.9839741,26.5549813 50.938228,29.8205008 C50.9319326,30.2688559 50.9256373,30.717211 50.9222798,31.165151 C50.9222798,31.4666836 50.76,31.6719029 50.6990052,31.7491196 L50.6834767,31.7690465 C50.537285,31.9611196 50.3140104,32.0810961 50.0717098,32.0978403 C49.8284301,32.1149995 49.5913057,32.0267123 49.4193731,31.8566418 C49.3953109,31.8328403 49.370829,31.8116679 49.3466269,31.7900805 C49.3008808,31.749258 49.2554145,31.7084356 49.2095285,31.6629082 C49.2025337,31.6561275 49.1955389,31.6489317 49.1888238,31.6417358 C46.8854301,29.1948794 44.0921192,27.9414225 40.6494093,27.8094068 C40.3504508,27.7984747 40.109829,27.8654512 39.9679741,28.0003729 C39.8382902,28.1233938 39.7725389,28.3154669 39.7725389,28.5711954 L39.7725389,50.4907776 C39.7725389,50.667352 39.8077927,50.9109029 39.9760881,51.0683807 C40.146342,51.2276575 40.3980155,51.2496601 40.5793212,51.2391431 C41.0892435,51.2157567 41.6814249,51.1793625 42.2647927,51.0831875 C46.6583782,50.3047933 49.7416943,47.8616732 51.4189119,43.823433 C51.7208083,43.1154747 51.8790311,42.3437228 52.0467668,41.5267202 C52.1224508,41.1579343 52.2003731,40.7775243 52.2932642,40.3989134 L52.2932642,35.6839891 C52.2932642,35.2255322 52.6691658,34.8537019 53.1326425,34.8537019 C53.5962591,34.8537019 53.9720207,35.2255322 53.9720207,35.6839891 L53.9720207,40.4996549 C53.9720207,40.5674617 53.9636269,40.6351301 53.9469793,40.7009995 C53.8521295,41.0767045 53.7742073,41.4557306 53.6919482,41.8568977 C53.515399,42.7179055 53.3326943,43.6081118 52.9688238,44.4616471 C51.0623161,49.0520283 47.5560933,51.8327985 42.550601,52.7195452 C41.8704249,52.831634 41.2162694,52.8723181 40.664658,52.8976418 C40.610658,52.9005478 40.556658,52.90207 40.5032176,52.90207" id="Fill-1" fill="#FFFFFF" mask="url(#mask-2)"></path>
                    </g>
                </g>
            </g>
        </g>
    </g>
</svg>