<?xml version="1.0" encoding="utf-8"?>
<!-- Generator: $$$/GeneralStr/196=Adobe Illustrator 27.6.0, SVG Export Plug-In . SVG Version: 6.00 Build 0)  -->
<svg version="1.1" id="Ebene_1" xmlns="http://www.w3.org/2000/svg" xmlns:xlink="http://www.w3.org/1999/xlink" x="0px" y="0px"
	 viewBox="0 0 1496.4 350" style="enable-background:new 0 0 1496.4 350;" xml:space="preserve">
<style type="text/css">
	.st0{fill:#FFFFFF;}
</style>
<g id="Hotline">
	<path class="st0" d="M275.3,159.3v5.9c-0.4,6.3-4.2,24-12.2,30.3c3.8-8.4,9.7-26.1,5.5-45.8c-10.6-54.3-51.8-77-104.3-85.8
		l-9.7-1.3c21.9,26.1,31.1,45.4,27.7,64.7c-1.3,7.1-5.5,13-8,17.7c0,0,1.3-7.1,1.3-16c0-8-3.8-17.2-10.1-21.9
		c2.1,10.1-0.4,18.5-5.1,26.5c-13.9,23.5-47.5,31.9-50,75.7v2.1c0,29.8,14.3,55,38.2,69.4c-3.8-6.7-6.7-19.8-3.3-33.6
		c2.1,13,8,20.2,13.9,28.6c4.6,6.3,10.5,10.9,18.5,13.9c8,2.9,17.2,4.2,26.5,4.2c31.1,0,50.8-10.1,66-28.2
		c15.5-18.1,17.7-37.8,17.7-59.3S283.2,172.8,275.3,159.3z M247.6,241.4c-1.8,5-10.4,9.6-14.5,10.2c-3.7,0.5-8.4,0.8-13.5-0.8
		c-3.1-1.1-7.2-2.4-12.3-4.6c-21.6-9.4-35.7-31.1-36.8-32.5s-8.8-11.6-8.8-22.2c0-10.6,5.6-15.8,7.5-18c2-2.1,4.3-2.7,5.7-2.7
		s2.9,0,4.1,0.1c1.4,0.1,3.1-0.5,4.9,3.7c1.8,4.3,6.1,14.9,6.6,16s0.8,2.3,0.2,3.7c-0.7,1.4-1.1,2.4-2.1,3.6
		c-1.1,1.3-2.2,2.8-3.2,3.8c-1.1,1.1-2.1,2.3-0.9,4.4c1.2,2.2,5.6,9.2,12,14.9c8.2,7.3,15.1,9.6,17.3,10.7c2.1,1.1,3.4,0.9,4.6-0.5
		c1.2-1.4,5.3-6.3,6.8-8.4c1.4-2.1,2.9-1.8,4.9-1.1c2,0.8,12.6,5.9,14.7,7c2.1,1.1,3.6,1.6,4.1,2.5
		C249.4,232,249.4,236.3,247.6,241.4z"/>
	<g>
		<path class="st0" d="M454.8,77.7v105.2h-35.5v-38.8h-32.8v38.8H351V77.7h35.5V115h32.8V77.7H454.8z"/>
		<path class="st0" d="M464.8,130.3c0-31.9,25.1-55,59.4-55s59.4,23.2,59.4,55c0,31.9-25.1,55-59.4,55S464.8,162.1,464.8,130.3z
			 M547.7,130.3c0-16.4-10.5-26.3-23.6-26.3s-23.6,9.9-23.6,26.3s10.5,26.3,23.6,26.3C537.2,156.6,547.7,146.7,547.7,130.3z"/>
		<path class="st0" d="M614.8,105.2H584V77.7h97.1v27.5h-30.8v77.7h-35.5V105.2z"/>
		<path class="st0" d="M687.3,77.7h35.5v77.7h47.5v27.5h-83V77.7z"/>
		<path class="st0" d="M777,77.7h35.5v105.2H777V77.7z"/>
		<path class="st0" d="M930.3,77.7v105.2h-29.2l-40-47.8v47.8h-34.6V77.7h29.2l40,47.8V77.7H930.3z"/>
		<path class="st0" d="M1032,156.1v26.8h-87.5V77.7h85.5v26.8h-50.7v12.3h44.5v25.6h-44.5v13.8h52.7V156.1z"/>
	</g>
	<g>
		<path class="st0" d="M395.1,259h-28l-5.5,13h-10.7l25.2-56h10.2l25.3,56h-10.9L395.1,259z M391.6,250.8L381,226.3l-10.5,24.5
			H391.6z"/>
		<path class="st0" d="M468.4,216v56h-8.6L429,234v38h-10.3v-56h8.6l30.9,37.9V216H468.4z"/>
		<path class="st0" d="M520.1,272l-11.4-16.4c-0.7,0.1-1.4,0.1-2.2,0.1h-12.6V272h-10.4v-56h23c14.7,0,23.8,7.5,23.8,19.9
			c0,8.5-4.3,14.7-11.9,17.7l12.9,18.4H520.1z M506,224.8h-12.2v22.3H506c9.1,0,13.8-4.2,13.8-11.2S515.1,224.8,506,224.8z"/>
		<path class="st0" d="M541.5,247.6V216h10.4v31.2c0,11.5,5.2,16.5,14.2,16.5s14.2-5,14.2-16.5V216h10.2v31.6
			c0,16.3-9.2,25.2-24.5,25.2C550.7,272.8,541.5,263.9,541.5,247.6z"/>
		<path class="st0" d="M615.5,224.7v17h27v8.8h-27V272h-10.4v-56H646v8.7H615.5z"/>
		<path class="st0" d="M698,263.2v8.7h-42v-56h40.9v8.7h-30.5v14.6h27v8.6h-27v15.4L698,263.2L698,263.2z"/>
		<path class="st0" d="M759.4,216v56h-8.6l-30.9-38v38h-10.3v-56h8.6l30.9,37.9V216H759.4z"/>
	</g>
</g>
</svg>
