<?xml version="1.0" encoding="utf-8"?>
<!-- Generator: Adobe Illustrator 27.4.0, SVG Export Plug-In . SVG Version: 6.00 Build 0)  -->
<svg version="1.1" xmlns="http://www.w3.org/2000/svg" xmlns:xlink="http://www.w3.org/1999/xlink" x="0px" y="0px"
	 viewBox="0 0 557.1 557.1" style="enable-background:new 0 0 557.1 557.1;" xml:space="preserve">
<style type="text/css">
	.st0{fill:none;}
	.st1{fill:#FFFFFF;}
</style>
<g id="Ebene_1">
	<g>
		<path class="st0" d="M144.5,127.4c0-6.6-3.9-10.2-10.6-10.2h-12.8v20.7h12.8C140.6,137.9,144.5,134.2,144.5,127.4z"/>
		<polygon class="st0" points="215.7,122.3 206.5,147 224.8,147 		"/>
		<path class="st0" d="M315.8,137.9c0-12.2-7.4-20.3-18.2-20.3h-10.2v40.3h11.3C308.9,157.9,315.8,149.9,315.8,137.9z"/>
		<path class="st0" d="M421.8,118c-10,0-18.5,8.3-18.5,19.7c0,11.4,8.6,19.9,18.5,19.9c9.9,0,17.9-8.5,17.9-19.9
			C439.7,126.3,431.7,118,421.8,118z"/>
		<path class="st0" d="M18.4,18.2v520.6H539V18.2H18.4z M348.3,99.9h22.4v75.6h-22.4V99.9z M264.9,99.9H298
			c24.5,0,40.6,15,40.6,37.7c0,22.8-16.5,37.8-41.4,37.8h-32.3V99.9z M204.9,99.9h23.1l31.2,75.6h-23.9l-4.4-12.1h-30.5l-4.5,12.1
			h-23.1L204.9,99.9z M98.7,99.9h35.3c20.3,0,31.9,9.7,31.9,26.8c0,11.2-4.5,19.4-12.7,24l15.3,24.7H143l-10-20.4h-11.9v20.4H98.7
			V99.9z M304.4,455.5h-209v-18h209V455.5z M304.4,425.5h-209v-18h209V425.5z M304.4,395.5H99.5l20.6-16h0l2.5-2h116.5l0,0h65.2
			V395.5z M296.4,322.9c-6.2,11.6-15.8,22.4-28.6,32.4l-13.3,10.3H137.9l56.4-44.2c9.3-6.8,16.1-12.9,20.5-18.5
			c4.4-5.5,6.6-12.3,6.6-20.2c0-4.5-1.7-8.2-5.1-11.2c-3.4-2.9-7.6-4.4-12.5-4.4c-6.1,0-10.7,1.8-13.7,5.4c-3,3.6-4.6,7.7-4.6,12.2
			H98.8c0.4-13.8,3.4-26.1,8.8-37.1c5.4-11,12.8-20.3,22.2-28c9.4-7.7,20.6-13.6,33.5-17.6c13-4.1,27.2-6.1,42.5-6.1
			c15.4,0,29.2,2,41.5,5.9c12.3,4,22.8,9.6,31.5,16.9c8.7,7.3,15.4,16.4,20,27.1c4.6,10.7,6.9,22.9,6.9,36.4
			C305.8,297.8,302.7,311.2,296.4,322.9z M459.9,455.5H351.8V283.4h-34.9v-82h143V455.5z M421.5,176.5c-23.7,0-41.2-16.5-41.2-38.8
			c0-22.2,17.5-38.4,41.2-38.4c23.7,0,41.2,16.3,41.2,38.4C462.7,159.9,445.2,176.5,421.5,176.5z"/>
		<polygon class="st1" points="316.9,283.4 351.8,283.4 351.8,455.5 459.9,455.5 459.9,201.4 316.9,201.4 		"/>
		<rect x="348.3" y="99.9" class="st1" width="22.4" height="75.6"/>
		<polygon class="st1" points="239.2,377.5 122.6,377.5 120.1,379.5 120.1,379.5 99.5,395.5 304.4,395.5 304.4,377.6 239.2,377.6 		
			"/>
		<path class="st1" d="M278.8,218.9c-8.7-7.3-19.2-13-31.5-16.9c-12.3-3.9-26.1-5.9-41.5-5.9c-15.4,0-29.5,2-42.5,6.1
			c-13,4.1-24.2,9.9-33.5,17.6c-9.4,7.7-16.8,17-22.2,28c-5.4,11-8.4,23.3-8.8,37.1h86.7c0-4.5,1.5-8.6,4.6-12.2
			c3-3.6,7.6-5.4,13.7-5.4c5,0,9.1,1.5,12.5,4.4c3.4,2.9,5.1,6.7,5.1,11.2c0,7.9-2.2,14.6-6.6,20.2c-4.4,5.5-11.2,11.7-20.5,18.5
			l-56.4,44.2h116.6l13.3-10.3c12.9-9.9,22.4-20.7,28.6-32.4c6.2-11.6,9.3-25.1,9.3-40.5c0-13.6-2.3-25.7-6.9-36.4
			C294.2,235.2,287.5,226.2,278.8,218.9z"/>
		<rect x="95.4" y="437.5" class="st1" width="209" height="18"/>
		<path class="st1" d="M0.3,0v557.1h556.5V0H0.3z M18.4,538.8V18.2H539v520.6H18.4z"/>
		<rect x="95.4" y="407.5" class="st1" width="209" height="18"/>
		<path class="st1" d="M338.6,137.6c0-22.8-16.2-37.7-40.6-37.7h-33.1v75.6h32.3C322.1,175.5,338.6,160.4,338.6,137.6z M287.3,117.6
			h10.2c10.8,0,18.2,8.1,18.2,20.3c0,12.1-6.9,20.1-17.1,20.1h-11.3V117.6z"/>
		<path class="st1" d="M121.1,155.1H133l10,20.4h25.4l-15.3-24.7c8.2-4.6,12.7-12.8,12.7-24c0-17.1-11.6-26.8-31.9-26.8H98.7v75.6
			h22.4V155.1z M121.1,117.2h12.8c6.7,0,10.6,3.7,10.6,10.2c0,6.8-3.9,10.5-10.6,10.5h-12.8V117.2z"/>
		<path class="st1" d="M200.2,163.4h30.5l4.4,12.1h23.9l-31.2-75.6h-23.1l-32.2,75.6h23.1L200.2,163.4z M215.7,122.3l9.1,24.7h-18.3
			L215.7,122.3z"/>
		<path class="st1" d="M421.5,99.3c-23.7,0-41.2,16.2-41.2,38.4c0,22.3,17.5,38.8,41.2,38.8c23.7,0,41.2-16.6,41.2-38.8
			C462.7,115.5,445.2,99.3,421.5,99.3z M421.8,157.7c-9.9,0-18.5-8.5-18.5-19.9c0-11.4,8.5-19.7,18.5-19.7c9.9,0,17.9,8.3,17.9,19.7
			C439.7,149.2,431.7,157.7,421.8,157.7z"/>
	</g>
</g>
<g id="Ebene_2">
</g>
<g id="Ebene_3">
</g>
<g id="Ebene_4">
</g>
</svg>
