<svg enable-background="new 0 0 1172.9 595.8" viewBox="0 0 1172.9 595.8" xmlns="http://www.w3.org/2000/svg"><path d="m484.5 35.8c0 60.8-23.2 106-66.1 132.2l24 39.6h-142.6l-8.6-18.6-48.5-.2v18.7h-138.2v-188.1h-85v557.1h557.1v-557.1h-92.7c.4 5.3.6 10.7.6 16.4zm-3.3 236h-151.6l-9-19.3h148.9zm-31.1-51.4 11.7 19.3h-147.1l-9-19.3zm-147 117.9h8.7v37.6h19.6v7.9h-28.3zm-49 0h8.7v22.2l20.6-22.2h10.1l-17.4 19.2 18.6 26.3h-10.5l-14.2-19.5-7.3 8.1v11.4h-8.7v-45.5zm-9.1 7-5.1 6.4c-3.3-3.6-7.9-5.9-12.4-5.9-8.6 0-15.3 6.6-15.3 15.1s6.7 15.1 15.3 15.1c4.4 0 9-2 12.4-5.3l5.1 5.7c-4.7 4.7-11.4 7.8-17.9 7.8-13.4 0-23.7-10.1-23.7-23.2 0-13 10.5-22.9 24.1-22.9 6.4-.1 13 2.7 17.5 7.2zm-140.5-124.9h138.2v19.3h-138.2zm0 32.1h138.2v19.3h-138.2zm0 32.1h138.2v19.2h-138.2zm94.4 76.4c0 13.1-10.5 23.1-24.2 23.1s-24.2-10.1-24.2-23.1c0-13.1 10.5-23 24.2-23s24.2 9.9 24.2 23zm-55.3 22.8h-9.9l-7.9-13.5c-.5.1-1 .1-1.6.1h-10.3v13.4h-8.7v-45.5h19c11.8 0 18.5 5.7 18.5 15.7 0 7.2-3.2 12.3-9 14.8zm7.9 106.6-10.7-21.8h-12.7v21.8h-24v-80.9h37.7c21.7 0 34.2 10.4 34.2 28.7 0 12-4.8 20.8-13.6 25.7l16.4 26.4h-27.3zm98.6 0-4.7-12.9h-32.6l-4.8 12.9h-24.7l34.5-80.9h24.7l33.3 80.9zm66.4 0h-34.6v-80.9h35.4c26.2 0 43.5 16 43.5 40.4 0 24.3-17.6 40.5-44.3 40.5zm31.4-116.3-4 9.6h-9l20-45.5h9l19.7 45.5h-9.4l-4-9.6zm47.3 116.3h-24v-80.9h24zm4.3-106.6h-8.5v-45.5h8.3l23.5 31.1v-31.1h8.5v45.5h-8.3l-23.4-31.1v31.1zm50 107.6c-25.4 0-44.1-17.7-44.1-41.5s18.7-41.1 44.1-41.1 44.1 17.4 44.1 41.1c0 23.8-18.7 41.5-44.1 41.5zm-5.3-107.6v-45.5h18.9c13.8 0 23.7 9.4 23.7 22.8 0 13.3-10 22.8-24.1 22.8h-18.5zm56.4-80h-156.1l-8.9-19.2h153.4z" fill="none"/><path d="m477.9 361.1c0-8.9-6.4-15.1-15-15.1h-10.1v30.2h10.4c8.5-.1 14.7-6.3 14.7-15.1z" fill="none"/><path d="m1021.1 157.9c.9-8.9 7.6-15.1 18.1-14.5v-10.8c-8.2 0-14.5 3.7-18.1 10.8v-10.4h-11.3v52.2h11.3z" fill="none"/><path d="m972.9 185.6c9 0 16.5-3.2 21.6-8.8l-6-6.4c-3.8 3.9-9 6.1-14.7 6.1-8.2 0-14.4-5-16.2-13h39.4c1.4-18.8-6.1-30.8-24.4-30.8-15.5.1-26.4 10.8-26.4 26.6 0 15.6 10.6 26.3 26.7 26.3zm-.2-43.9c8.5 0 14.1 5.1 14.5 13.5h-29.8c1.2-8.3 7.1-13.5 15.3-13.5z" fill="none"/><path d="m878.9 176.8c-5.7 0-12.9-2.5-17.5-6.5l-4 8c5.2 4.7 13.3 7.3 21 7.3 10.5 0 20-4.8 20-15.5.1-18.9-27.7-13.7-27.7-23.3 0-3.7 3.2-5.2 7.7-5.2 4.6 0 10.4 1.8 15 4.6l4.1-8.3c-4.7-3.3-11.7-5.3-18.2-5.3-10 0-19.2 4.5-19.2 15.1-.1 18.8 27.4 12.8 27.4 23.5 0 3.9-3.7 5.6-8.6 5.6z" fill="none"/><path d="m950.3 239.1c8 0 17.1 5.1 23.2 12.9l16.6-19.7c-9.9-10.5-25.5-17.2-40.2-17.2-30.1 0-52.3 21-52.3 49.3 0 28.7 21.8 50.1 51.3 50.1 14.7 0 30.7-7.4 41.2-18.7l-16.7-17.8c-6.7 6.8-15.7 11.2-23.2 11.2-13.2 0-23.2-10.8-23.2-25.1.1-14.3 10.1-25 23.3-25z" fill="none"/><path d="m826.9 185.6c9 0 16.5-3.2 21.6-8.8l-6-6.4c-3.8 3.9-9 6.1-14.7 6.1-8.2 0-14.4-5-16.2-13h39.4c1.4-18.8-6.1-30.8-24.4-30.8-15.5.1-26.4 10.8-26.4 26.6 0 15.6 10.6 26.3 26.7 26.3zm-.2-43.9c8.5 0 14.1 5.1 14.5 13.5h-29.8c1.1-8.3 7-13.5 15.3-13.5z" fill="none"/><path d="m666.6 340.2c-7.3 0-12.6 5.2-12.6 12.4 0 3.7 1.6 7.3 4.9 9.5l-6.5 15.6h12.4l10.7-15.5c2-2.9 3.3-6.1 3.3-9.8.1-7.9-5.7-12.2-12.2-12.2z" fill="none"/><path d="m912.9 170.5c0 10.7 6.8 15.2 14.6 15.2 4.4 0 8.7-1.4 12.8-3.8l-2.8-8.6c-3 1.5-5.5 2.3-7.8 2.3-3.5 0-5.6-1.7-5.6-7.1v-25h15.4v-8.5h-15.4v-14.3h-11.2v14.3h-7.4v8.4h7.4z" fill="none"/><path d="m159.4 361c0 8.6 7.1 15.3 15.5 15.3 8.3 0 15.2-6.8 15.2-15.3 0-8.6-6.9-15.2-15.2-15.2-8.5 0-15.5 6.6-15.5 15.2z" fill="none"/><path d="m141.8 428h-13.7v22.2h13.7c7.2 0 11.3-3.9 11.3-11.2 0-7.1-4.1-11-11.3-11z" fill="none"/><path d="m124.1 345.9h-10.3v16.8h10.3c6.5 0 10.1-2.8 10.1-8.5.1-5.6-3.6-8.3-10.1-8.3z" fill="none"/><path d="m306.4 90.6c29.8 0 47.1-18.5 47.1-50.6 0-7.7-1.1-14.6-3.1-20.5h-107.7v71.2h63.7z" fill="none"/><path d="m449.9 428.9c-10.7 0-19.8 8.9-19.8 21.1s9.2 21.3 19.8 21.3 19.2-9.1 19.2-21.3c-.1-12.2-8.6-21.1-19.2-21.1z" fill="none"/><path d="m351 366.7h16l-7.9-19.1z" fill="none"/><path d="m316.9 428.4h-11v43.1h12.1c11 0 18.3-8.5 18.3-21.5.1-12.9-7.9-21.6-19.4-21.6z" fill="none"/><path d="m219.4 459.9h19.6l-9.6-26.4z" fill="none"/><path d="m1054.4 341.6h-41.4v91.2h27.1v-24.6h14.3c23.6 0 37.1-12.5 37.1-34.2 0-20.7-13.5-32.4-37.1-32.4zm-1.3 45.8h-13v-25h13c8.1 0 12.8 4.4 12.8 12.4 0 8.2-4.7 12.6-12.8 12.6z" fill="none"/><path d="m888.9 264.5c0-28.4-22.5-49.4-53-49.4s-53 20.8-53 49.4c0 28.7 22.5 50 53 50s53-21.4 53-50zm-76.4.2c0-14.7 11-25.4 23.9-25.4 12.8 0 23 10.7 23 25.4s-10.3 25.7-23 25.7c-12.8-.1-23.9-11-23.9-25.7z" fill="none"/><path d="m596.3 576.7h557.1v-557.1h-557.1zm12.8-544.3h531.4v531.4h-531.4z" fill="none"/><path d="m750.6 392.6-38.6-51h-23.2v91.2h24.8v-50.7l38.7 50.7h23v-91.2h-24.7z" fill="none"/><path d="m861.2 341.6h-41.4v91.2h27.1v-24.6h14.3c23.5 0 37.1-12.5 37.1-34.2 0-20.7-13.5-32.4-37.1-32.4zm-1.3 45.8h-13v-25h13c8.1 0 12.7 4.4 12.7 12.4.1 8.2-4.6 12.6-12.7 12.6z" fill="none"/><path d="m954.5 340.9c-28.6 0-49.7 19.5-49.7 46.3 0 26.9 21.1 46.8 49.7 46.8s49.7-20 49.7-46.8c0-26.7-21.1-46.3-49.7-46.3zm.4 70.5c-12 0-22.4-10.3-22.4-24.1s10.3-23.8 22.4-23.8c12 0 21.6 10 21.6 23.8s-9.6 24.1-21.6 24.1z" fill="none"/><path d="m1095 216h-33.3l-32.6 37.4v-37.4h-28.9v97.2h28.9v-23.3l11-12.2 22.6 35.5h34.5l-37.4-57.7z" fill="none"/><path d="m765.5 132.6c-8.1 0-14.4 3.3-18.2 9.4v-29.6h-11.3v72.8h11.3v-9c3.8 6.1 10.1 9.4 18.4 9.4 14.9 0 24.7-10.7 24.7-26.3 0-15.9-10.1-26.7-24.9-26.7zm-2.4 43.4c-9.3 0-15.9-7-15.9-17.1 0-9.8 6.6-16.9 15.9-16.9s15.9 7.2 15.9 16.9c0 10-6.6 17.1-15.9 17.1z" fill="none"/><path d="m775.7 250.5c0-22.1-15-34.6-41.1-34.6h-45.4v97.3h28.9v-26.2h15.3l12.9 26.2h32.7l-19.7-31.8c10.5-5.9 16.4-16.4 16.4-30.9zm-41.1 14.3h-16.5v-26.6h16.5c8.6 0 13.6 4.7 13.6 13.2 0 8.7-5 13.4-13.6 13.4z" fill="none"/><g fill="#fff"><path d="m142.6 353.9c0-10-6.7-15.7-18.5-15.7h-19v45.5h8.7v-13.4h10.3c.6 0 1.1 0 1.6-.1l7.9 13.5h9.9l-10-15.1c5.9-2.4 9.1-7.5 9.1-14.7zm-18.5 8.8h-10.3v-16.8h10.3c6.5 0 10.1 2.7 10.1 8.3.1 5.7-3.6 8.5-10.1 8.5z"/><path d="m150.4 361c0 13.1 10.5 23.1 24.2 23.1s24.2-10.1 24.2-23.1c0-13.1-10.5-23-24.2-23-13.6 0-24.2 9.9-24.2 23zm39.6 0c0 8.6-6.9 15.3-15.2 15.3-8.4 0-15.5-6.8-15.5-15.3 0-8.6 7-15.2 15.5-15.2 8.3 0 15.2 6.6 15.2 15.2z"/><path d="m203.4 360.9c0 13.1 10.3 23.2 23.7 23.2 6.6 0 13.3-3.1 17.9-7.8l-5.1-5.7c-3.4 3.3-8 5.3-12.4 5.3-8.6 0-15.3-6.6-15.3-15.1s6.7-15.1 15.3-15.1c4.5 0 9.1 2.3 12.4 5.9l5.1-6.4c-4.4-4.5-11-7.3-17.5-7.3-13.7.1-24.1 10-24.1 23z"/><path d="m262.8 372.3 7.2-8 14.2 19.5h10.6l-18.6-26.3 17.3-19.2h-10.1l-20.6 22.2v-22.2h-8.7v45.5h8.7z"/><path d="m331.5 375.9h-19.7v-37.6h-8.7v45.5h28.4z"/><path d="m383.5 383.8-19.7-45.5h-9l-20 45.5h9l4-9.6h22.2l4 9.6zm-32.5-17.1 8.1-19.1 7.9 19.1z"/><path d="m431.1 383.8v-45.5h-8.4v31.1l-23.5-31.1h-8.3v45.5h8.6v-31.1l23.4 31.1z"/><path d="m486.8 361c0-13.3-9.9-22.8-23.7-22.8h-18.9v45.5h18.6c14 .1 24-9.4 24-22.7zm-33.9-15.1h10.1c8.5 0 15 6.2 15 15.1 0 8.8-6.2 15-14.6 15h-10.4v-30.1z"/><path d="m176 438.3c0-18.3-12.5-28.7-34.2-28.7h-37.7v80.9h24v-21.8h12.7l10.7 21.8h27.2l-16.3-26.5c8.7-5 13.6-13.8 13.6-25.7zm-34.2 11.8h-13.7v-22.1h13.7c7.2 0 11.3 3.9 11.3 11 0 7.2-4.1 11.1-11.3 11.1z"/><path d="m217.7 409.5-34.5 80.9h24.7l4.8-12.9h32.6l4.7 12.9h25.6l-33.3-80.9zm1.7 50.4 9.9-26.4 9.7 26.4z"/><path d="m317.3 409.5h-35.4v80.9h34.6c26.7 0 44.3-16.2 44.3-40.5s-17.3-40.4-43.5-40.4zm.7 62.1h-12.1v-43.1h11c11.5 0 19.5 8.7 19.5 21.7 0 12.9-7.4 21.4-18.4 21.4z"/><path d="m371.2 409.5h24v80.9h-24z"/><path d="m449.5 408.8c-25.4 0-44.1 17.3-44.1 41.1 0 23.9 18.7 41.5 44.1 41.5s44.1-17.8 44.1-41.5c0-23.6-18.7-41.1-44.1-41.1zm.4 62.6c-10.6 0-19.8-9.1-19.8-21.3s9.1-21.1 19.8-21.1c10.6 0 19.2 8.9 19.2 21.1-.1 12.1-8.6 21.3-19.2 21.3z"/><path d="m104.5 252.5h138.2v19.3h-138.2z"/><path d="m104.5 220.4h138.2v19.3h-138.2z"/><path d="m461.8 239.7-11.7-19.3h-144.3l8.9 19.3z"/><path d="m344.5 303.8h156.1l-11.6-19.2h-153.4z"/><path d="m329.6 271.8h151.6l-11.7-19.3h-148.8z"/><path d="m104.5 284.6h138.2v19.2h-138.2z"/><path d="m859.4 264.7c0-14.7-10.3-25.4-23-25.4-12.9 0-23.9 10.7-23.9 25.4s11.1 25.7 23.9 25.7c12.7-.1 23-11 23-25.7z"/><path d="m763.1 142c-9.3 0-15.9 7.1-15.9 16.9 0 10.1 6.6 17.1 15.9 17.1s15.9-7.1 15.9-17.1c0-9.7-6.6-16.9-15.9-16.9z"/><path d="m972.7 141.7c-8.2 0-14.1 5.2-15.3 13.5h29.8c-.4-8.4-6-13.5-14.5-13.5z"/><path d="m859.9 362.5h-13v25h13c8.1 0 12.7-4.4 12.7-12.6.1-8-4.6-12.4-12.7-12.4z"/><path d="m826.7 141.7c-8.2 0-14.1 5.2-15.3 13.5h29.8c-.4-8.4-6-13.5-14.5-13.5z"/><path d="m734.6 238.2h-16.5v26.6h16.5c8.6 0 13.6-4.7 13.6-13.5 0-8.4-5-13.1-13.6-13.1z"/><path d="m1053.1 362.5h-13v25h13c8.1 0 12.8-4.4 12.8-12.6 0-8-4.7-12.4-12.8-12.4z"/><path d="m1140.5 32.4h-531.4v531.4h531.4zm-130.7 100.6h11.3v10.4c3.5-7.1 9.8-10.8 18.1-10.8v10.8c-10.5-.6-17.2 5.6-18.1 14.5v27.3h-11.3zm-37.2-.4c18.3 0 25.8 12 24.4 30.8h-39.4c1.8 8 7.9 13 16.2 13 5.7 0 10.9-2.2 14.7-6.1l6 6.4c-5.1 5.6-12.6 8.8-21.6 8.8-16.1 0-26.7-10.7-26.7-26.4s10.9-26.4 26.4-26.5zm-22.3 156.6c7.5 0 16.5-4.4 23.2-11.2l16.6 17.8c-10.5 11.4-26.5 18.7-41.2 18.7-29.6 0-51.3-21.4-51.3-50.1 0-28.3 22.2-49.3 52.3-49.3 14.7 0 30.4 6.7 40.2 17.2l-16.7 19.7c-6.1-7.8-15.1-12.9-23.2-12.9-13.2 0-23.2 10.7-23.2 25 .1 14.3 10.1 25.1 23.3 25.1zm-44.8-154.2h7.4v-14.3h11.2v14.3h15.4v8.4h-15.4v25c0 5.4 2.1 7.1 5.6 7.1 2.4 0 4.8-.8 7.8-2.3l2.8 8.6c-4.1 2.5-8.4 3.8-12.8 3.8-7.8 0-14.6-4.5-14.6-15.2v-27.1h-7.4zm-45.4 12.6c0-10.6 9.2-15.1 19.2-15.1 6.6 0 13.5 2 18.2 5.3l-4.1 8.3c-4.6-2.8-10.4-4.6-15-4.6-4.4 0-7.7 1.5-7.7 5.2 0 9.6 27.8 4.4 27.7 23.3 0 10.7-9.5 15.5-20 15.5-7.7 0-15.8-2.5-21-7.3l4-8c4.5 4 11.8 6.5 17.5 6.5 4.8 0 8.5-1.7 8.5-5.6.1-10.6-27.4-4.6-27.3-23.5zm-33.5-15c18.3 0 25.8 12 24.4 30.8h-39.4c1.8 8 7.9 13 16.2 13 5.7 0 10.9-2.2 14.7-6.1l6 6.4c-5.1 5.6-12.6 8.8-21.6 8.8-16.1 0-26.7-10.7-26.7-26.4s10.9-26.4 26.4-26.5zm-151 229.6-10.7 15.5h-12.4l6.5-15.6c-3.3-2.2-4.9-5.8-4.9-9.5 0-7.3 5.3-12.4 12.6-12.4 6.5 0 12.3 4.4 12.3 12.3-.1 3.7-1.4 6.8-3.4 9.7zm99.7 70.6h-23l-38.6-50.7v50.7h-24.8v-91.2h23.1l38.6 51v-51h24.7zm-29-119.6-12.9-26.2h-15.3v26.2h-28.9v-97.2h45.4c26.1 0 41.1 12.5 41.1 34.6 0 14.4-5.8 25-16.4 30.9l19.7 31.8h-32.7zm19.4-127.6c-8.3 0-14.6-3.3-18.4-9.4v9h-11.3v-72.8h11.3v29.6c3.8-6.1 10.1-9.4 18.2-9.4 14.8 0 24.9 10.8 24.9 26.7 0 15.6-9.8 26.3-24.7 26.3zm17.2 78.9c0-28.6 22.5-49.4 53-49.4s53 21 53 49.4c0 28.6-22.5 50-53 50s-53-21.2-53-50zm78.3 143.7h-14.3v24.6h-27.1v-91.2h41.4c23.5 0 37.1 11.7 37.1 32.4 0 21.8-13.5 34.2-37.1 34.2zm93.3 25.8c-28.6 0-49.7-19.9-49.7-46.8 0-26.8 21.1-46.3 49.7-46.3s49.7 19.6 49.7 46.3c0 26.8-21.1 46.8-49.7 46.8zm99.9-25.8h-14.3v24.6h-27.1v-91.2h41.4c23.6 0 37.1 11.7 37.1 32.4 0 21.8-13.5 34.2-37.1 34.2zm8.3-95-22.6-35.5-11 12.2v23.3h-28.9v-97.2h28.9v37.5l32.6-37.5h33.3l-35.2 39.5 37.5 57.7z"/><path d="m954.9 363.5c-12.1 0-22.4 10-22.4 23.8s10.4 24.1 22.4 24.1 21.6-10.3 21.6-24.1-9.6-23.8-21.6-23.8z"/></g><path d="m306.4 90.6c29.8 0 47.1-18.5 47.1-50.6 0-7.7-1.1-14.6-3.1-20.5h-107.7v71.2h63.7z" fill="none"/><path d="m104.5 18.6h138.2v.8h-138.2z" fill="none"/><path d="m483.8 18.6h-133.7c.1.3.2.5.3.8h133.5c-.1-.3-.1-.6-.1-.8z" fill="none"/><path d="m596.3 19.6h557.1v557.1h-557.1z" fill="none"/><path d="m484.5 35.8c0 60.8-23.2 106-66.1 132.2l24 39.6h-142.6l-8.6-18.6-48.5-.2v18.7h-138.2v-188.1h-85v557.1h557.1v-557.1h-92.7c.4 5.3.6 10.7.6 16.4z" fill="none"/><path d="m483.8 18.6h-133.7c.1.3.2.5.3.8h133.5c-.1-.3-.1-.6-.1-.8z" fill="none"/><path d="m104.5 18.6h138.2v.8h-138.2z" fill="none"/><path d="m306.4 90.6c29.8 0 47.1-18.5 47.1-50.6 0-7.7-1.1-14.6-3.1-20.5h-107.7v71.2h63.7z" fill="none"/><path d="m596.3 19.6h557.1v557.1h-557.1z" fill="none"/><path d="m484.5 35.8c0 60.8-23.2 106-66.1 132.2l24 39.6h-142.6l-8.6-18.6-48.5-.2v18.7h-138.2v-188.1h-85v557.1h557.1v-557.1h-92.7c.4 5.3.6 10.7.6 16.4z" fill="none"/><path d="m242.7 207.6v-18.7l48.5.2 8.6 18.6h142.6l-24-39.6c42.9-26.2 66.1-71.5 66.1-132.2 0-5.6-.2-11.1-.7-16.4h-133.5c2.1 6 3.1 12.9 3.1 20.5 0 32.2-17.3 50.6-47.1 50.6h-63.7v-71.2h-138.1v188.2z" fill="#fff"/><path d="m.2-.1v596.1h1172.6v-596.1zm576.4 576.5h-557.1v-557h85v-.8h138.2v.8h107.6c-.1-.3-.2-.6-.3-.8h133.7c0 .3 0 .5.1.8h92.7v557zm576.8.3h-557.1v-557.1h557.1z" fill="#fff"/></svg>