<svg enable-background="new 0 0 1172.9 595.8" viewBox="0 0 1172.9 595.8" xmlns="http://www.w3.org/2000/svg" xmlns:xlink="http://www.w3.org/1999/xlink"><defs><path id="a" d="m19.5 19.4h557.1v557.1h-557.1z"/><clipPath id="b"><use xlink:href="#a"/></clipPath></defs><path d="m0 0h1172.9v595.8h-1172.9z" fill="#ffec07"/><path d="m596.3 19.7v557h557.1v-557z"/><use xlink:href="#a"/><path clip-path="url(#b)" d="m19.5 19.4v557.1h557.1v-557.1z"/><g fill="#fff"><path d="m134.9 383.9-7.9-13.5c-.5.1-1 .1-1.6.1h-10.3v13.4h-8.7v-45.5h19c11.8 0 18.5 5.7 18.5 15.7 0 7.1-3.2 12.3-9 14.8l10 15.1h-10zm-19.8-21h10.3c6.5 0 10.1-2.8 10.1-8.5 0-5.6-3.6-8.3-10.1-8.3h-10.3z"/><path d="m200.2 361.2c0 13.1-10.5 23.1-24.2 23.1s-24.2-10.1-24.2-23.1c0-13.1 10.5-23 24.2-23s24.2 9.9 24.2 23zm-39.6 0c0 8.6 7.1 15.3 15.5 15.3 8.3 0 15.2-6.8 15.2-15.3 0-8.6-6.9-15.2-15.2-15.2-8.5 0-15.5 6.6-15.5 15.2z"/><path d="m228.8 345.9c-8.6 0-15.3 6.6-15.3 15.1s6.7 15.1 15.3 15.1c4.4 0 9-2 12.4-5.3l5.1 5.7c-4.7 4.7-11.4 7.8-17.9 7.8-13.4 0-23.7-10.1-23.7-23.2 0-13 10.5-22.9 24.1-22.9 6.5 0 13.1 2.8 17.5 7.3l-5.1 6.4c-3.3-3.7-7.9-6-12.4-6z"/><path d="m285.5 383.9-14.2-19.5-7.3 8.1v11.4h-8.7v-45.5h8.7v22.2l20.6-22.2h10.1l-17.4 19.2 18.6 26.3z"/><path d="m313.1 338.4v37.6h19.6v7.9h-28.3v-45.5z"/><path d="m371.4 374.3h-22.2l-4 9.6h-9l20-45.5h9l19.7 45.5h-9.4zm-3.1-7.4-7.9-19.1-8.1 19.1z"/><path d="m400.5 338.4 23.5 31.1v-31.1h8.5v45.5h-8.3l-23.4-31.1v31.1h-8.5v-45.5z"/><path d="m488.1 361.2c0 13.3-10 22.8-24.1 22.8h-18.6v-45.5h18.9c13.8-.1 23.8 9.4 23.8 22.7zm-8.9.1c0-8.9-6.4-15.1-15-15.1h-10.1v30.2h10.4c8.4-.1 14.7-6.3 14.7-15.1z"/><path d="m152.8 490.6-10.7-21.8h-12.7v21.8h-24v-80.9h37.7c21.7 0 34.2 10.4 34.2 28.7 0 12-4.8 20.8-13.6 25.7l16.4 26.4h-27.3zm-23.4-40.3h13.7c7.2 0 11.3-3.9 11.3-11.2 0-7-4.2-11-11.3-11h-13.7z"/><path d="m246.7 477.7h-32.7l-4.8 12.9h-24.7l34.5-80.9h24.7l33.3 80.9h-25.6zm-6.4-17.6-9.7-26.4-9.9 26.4z"/><path d="m362.1 450.1c0 24.3-17.7 40.5-44.3 40.5h-34.6v-80.9h35.4c26.2 0 43.5 16 43.5 40.4zm-24.5.2c0-13-8-21.7-19.5-21.7h-11v43.1h12.1c11.1.1 18.4-8.5 18.4-21.4z"/><path d="m396.5 409.7v80.9h-24v-80.9z"/><path d="m494.8 450.1c0 23.8-18.7 41.5-44.1 41.5s-44.1-17.7-44.1-41.5 18.7-41.1 44.1-41.1 44.1 17.4 44.1 41.1zm-63.5.1c0 12.2 9.2 21.3 19.8 21.3s19.2-9.1 19.2-21.3-8.5-21.1-19.2-21.1-19.8 8.9-19.8 21.1z"/></g><path d="m105.8 252.7h138.2v19.3h-138.2z" fill="#ffec07"/><path d="m244 207.8v-18.8l48.5.2 8.6 18.6h142.6l-24-39.6c42.9-26.2 66.1-71.5 66.1-132.2 0-5.9-.2-11.6-.7-17.2h-133.8c2.2 6.2 3.4 13.3 3.4 21.4 0 32.2-17.3 50.6-47.1 50.6h-63.6v-72h-138.2v189z" fill="#ffec07"/><path d="m105.8 220.6h138.2v19.3h-138.2z" fill="#ffec07"/><path d="m307 220.6 9 19.2h147l-11.6-19.2z" fill="#ffec07"/><path d="m336.9 284.8 8.9 19.2h156.1l-11.7-19.2z" fill="#ffec07"/><path d="m470.8 252.7h-148.9l9 19.2h151.6z" fill="#ffec07"/><path d="m105.8 284.8h138.2v19.2h-138.2z" fill="#ffec07"/><path d="m609 32.6v531.4h531.4v-531.4z" fill="#ffec07"/><path d="m888.4 374.2c0 21.7-13.5 34.2-37.1 34.2h-14.3v24.6h-27.1v-91.2h41.4c23.6 0 37.1 11.7 37.1 32.4zm-25.6.7c0-7.9-4.7-12.4-12.7-12.4h-13v25h13c8 .1 12.7-4.4 12.7-12.6z"/><path d="m994.3 387.3c0 26.8-21.1 46.8-49.7 46.8s-49.7-19.9-49.7-46.8c0-26.8 21.1-46.3 49.7-46.3s49.7 19.6 49.7 46.3zm-71.7.1c0 13.8 10.4 24.1 22.4 24.1s21.6-10.3 21.6-24.1-9.6-23.8-21.6-23.8c-12.1 0-22.4 10-22.4 23.8z"/><path d="m1081.6 374.2c0 21.7-13.5 34.2-37.1 34.2h-14.3v24.6h-27.1v-91.2h41.4c23.6 0 37.1 11.7 37.1 32.4zm-25.6.7c0-7.9-4.7-12.4-12.7-12.4h-13v25h13c8 .1 12.7-4.4 12.7-12.6z"/><path d="m736.4 313.4-12.9-26.2h-15.3v26.2h-28.9v-97.3h45.4c26.1 0 41.1 12.5 41.1 34.6 0 14.4-5.8 25-16.4 30.9l19.7 31.8zm-28.2-48.5h16.5c8.6 0 13.6-4.7 13.6-13.5 0-8.5-5-13.2-13.6-13.2h-16.5z"/><path d="m879 264.7c0 28.6-22.5 50-53 50s-53-21.2-53-50c0-28.6 22.5-49.4 53-49.4s53 20.9 53 49.4zm-76.4.1c0 14.7 11.1 25.7 23.9 25.7s23-11 23-25.7-10.3-25.4-23-25.4c-13 0-23.9 10.7-23.9 25.4z"/><path d="m940.4 239.3c-13.2 0-23.2 10.7-23.2 25s10 25.1 23.2 25.1c7.5 0 16.5-4.4 23.2-11.2l16.6 17.8c-10.5 11.4-26.5 18.7-41.2 18.7-29.6 0-51.3-21.4-51.3-50.1 0-28.3 22.2-49.3 52.3-49.3 14.7 0 30.4 6.7 40.2 17.2l-16.6 19.7c-6.2-7.8-15.2-12.9-23.2-12.9z"/><path d="m1052.8 313.4-22.6-35.5-11 12.2v23.3h-28.9v-97.3h28.9v37.5l32.6-37.5h33.3l-35.2 39.5 37.5 57.7h-34.6z"/><path d="m669 352.6c0 3.7-1.3 6.9-3.3 9.8l-10.7 15.4h-12.4l6.5-15.6c-3.3-2.2-4.9-5.8-4.9-9.5 0-7.3 5.3-12.4 12.6-12.4 6.4 0 12.2 4.3 12.2 12.3z"/><path d="m702.1 341.8 38.6 51v-51h24.7v91.2h-23l-38.6-50.7v50.7h-24.8v-91.2z"/><path d="m780.5 159.4c0 15.6-9.8 26.3-24.7 26.3-8.3 0-14.6-3.3-18.4-9.4v9h-11.3v-72.8h11.3v29.6c3.8-6.1 10.1-9.4 18.2-9.4 14.8.1 24.9 10.8 24.9 26.7zm-11.4-.4c0-9.7-6.6-16.9-15.9-16.9s-15.9 7.1-15.9 16.9c0 10.1 6.6 17.1 15.9 17.1s15.9-7.1 15.9-17.1z"/><path d="m841.1 163.6h-39.4c1.8 8 7.9 13 16.2 13 5.7 0 10.9-2.2 14.7-6.1l6 6.4c-5.1 5.6-12.6 8.8-21.6 8.8-16.1 0-26.7-10.7-26.7-26.4 0-15.8 10.9-26.5 26.4-26.6 18.3.1 25.8 12 24.4 30.9zm-9.8-8.3c-.4-8.4-6-13.5-14.5-13.5-8.2 0-14.1 5.2-15.3 13.5z"/><path d="m868.6 141.7c-4.4 0-7.6 1.5-7.6 5.2 0 9.6 27.8 4.4 27.7 23.3 0 10.7-9.5 15.5-20 15.5-7.6 0-15.8-2.5-21-7.3l4-8c4.5 4 11.8 6.5 17.5 6.5 4.8 0 8.5-1.7 8.5-5.6 0-10.7-27.5-4.7-27.4-23.5 0-10.6 9.2-15.1 19.2-15.1 6.6 0 13.5 2 18.2 5.3l-4.1 8.3c-4.6-2.9-10.4-4.6-15-4.6z"/><path d="m930.4 182c-4.1 2.5-8.4 3.8-12.8 3.8-7.8 0-14.6-4.5-14.6-15.2v-27.1h-7.4v-8.4h7.4v-14.3h11.2v14.3h15.4v8.4h-15.4v25c0 5.4 2.1 7.1 5.6 7.1 2.4 0 4.8-.8 7.8-2.3z"/><path d="m987.1 163.6h-39.4c1.8 8 7.9 13 16.2 13 5.7 0 10.9-2.2 14.7-6.1l6 6.4c-5.1 5.6-12.6 8.8-21.6 8.8-16.1 0-26.7-10.7-26.7-26.4 0-15.8 10.9-26.5 26.4-26.6 18.4.1 25.8 12 24.4 30.9zm-9.8-8.3c-.4-8.4-6-13.5-14.5-13.5-8.2 0-14.1 5.2-15.3 13.5z"/><path d="m1029.2 132.8v10.8c-10.5-.6-17.2 5.6-18 14.5v27.3h-11.3v-52.2h11.3v10.4c3.5-7.1 9.8-10.8 18-10.8z"/></svg>