<?xml version="1.0" standalone="no"?>
<!DOCTYPE svg PUBLIC "-//W3C//DTD SVG 20010904//EN"
 "http://www.w3.org/TR/2001/REC-SVG-20010904/DTD/svg10.dtd">
<svg version="1.0" xmlns="http://www.w3.org/2000/svg"
 width="1243.000000pt" height="1243.000000pt" viewBox="0 0 1243.000000 1243.000000"
 preserveAspectRatio="xMidYMid meet">
<metadata>
Created by potrace 1.14, written by Peter Selinger 2001-2017
</metadata>
<g transform="translate(0.000000,1243.000000) scale(0.100000,-0.100000)"
fill="#000000" stroke="none">
<path d="M2600 10735 l0 -1286 1143 4 c1257 4 1186 0 1415 67 653 191 1006
776 979 1625 -10 324 -82 613 -205 821 l-28 49 -1652 3 -1652 2 0 -1285z"/>
<path d="M10284 11978 c22 -153 38 -394 43 -658 27 -1390 -325 -2544 -1045
-3430 -123 -151 -444 -468 -602 -594 -99 -79 -415 -301 -458 -322 -2 -1 166
-283 374 -626 207 -342 379 -626 381 -631 2 -4 -1022 -6 -2277 -5 l-2282 3
-135 293 -136 292 -751 0 c-413 0 -761 3 -773 6 l-23 6 0 -301 0 -301 -1095 0
-1095 0 0 -205 0 -205 1095 0 1095 0 0 -310 0 -310 -1095 0 -1095 0 0 -205 0
-205 1095 0 1095 0 0 -310 0 -310 -1095 0 -1095 0 0 -205 0 -205 1095 0 1095
0 0 -305 0 -305 -1095 0 -1095 0 0 -1110 0 -1110 5805 0 5805 0 0 5805 0 5805
-871 0 -871 0 6 -42z m-868 -6983 c100 -165 183 -303 183 -308 1 -4 -1057 -6
-2350 -5 l-2351 3 -139 299 c-77 164 -139 303 -139 307 0 5 1020 8 2307 7
l2306 -3 183 -300z m622 -1028 c100 -166 182 -306 182 -310 0 -4 -1090 -6
-2422 -5 l-2421 3 -75 160 c-41 88 -105 226 -142 308 l-69 147 2382 0 2382 0
183 -303z m621 -1026 c99 -165 181 -302 181 -305 0 -3 -1122 -6 -2493 -6
l-2494 0 -108 233 c-59 127 -123 265 -141 305 l-33 72 2453 0 2453 0 182 -299z"/>
</g>
</svg>
