<?xml version="1.0" encoding="utf-8"?>
<!-- Generator: $$$/GeneralStr/196=Adobe Illustrator 27.6.0, SVG Export Plug-In . SVG Version: 6.00 Build 0)  -->
<svg version="1.1" id="Stream" xmlns="http://www.w3.org/2000/svg" xmlns:xlink="http://www.w3.org/1999/xlink" x="0px" y="0px"
	 viewBox="0 0 1496.4 350" style="enable-background:new 0 0 1496.4 350;" xml:space="preserve">
<style type="text/css">
	.st0{fill:#FFFFFF;}
</style>
<g>
	<path class="st0" d="M351.1,77.7h35.5v77.7h47.5v27.5h-83V77.7z"/>
	<path class="st0" d="M440.9,77.7h35.5v105.2h-35.5V77.7z"/>
	<path class="st0" d="M602.9,77.7l-44.5,105.2h-34.9L479,77.7h38.2l25.1,61.5L568,77.7H602.9z"/>
	<path class="st0" d="M690.9,156.1v26.8h-87.5V77.7h85.5v26.8h-50.7v12.3h44.5v25.6h-44.5v13.8H690.9z"/>
	<path class="st0" d="M694.9,174.5l11.4-25.9c9.9,5.9,23.2,9.6,34.7,9.6c10.1,0,13.7-2.1,13.7-5.7c0-13.2-58.2-2.6-58.2-41.8
		c0-19.5,16.4-35.5,49-35.5c14.1,0,28.7,3,39.7,9.2l-10.7,25.7c-10.4-5.3-20.1-7.8-29.3-7.8c-10.4,0-13.7,3-13.7,6.6
		c0,12.6,58.2,2.1,58.2,40.9c0,19.2-16.4,35.5-49,35.5C723.2,185.3,705.4,180.9,694.9,174.5z"/>
	<path class="st0" d="M818.6,105.2h-30.8V77.7h97.1v27.5h-30.8v77.7h-35.5V105.2z"/>
	<path class="st0" d="M936.2,156.4h-9.6v26.5h-35.5V77.7h50.7c29.3,0,48,15.3,48,39.7c0,15.2-7.2,26.6-19.8,33.1l22.1,32.5h-37.9
		L936.2,156.4z M939.5,105h-12.9v24.7h12.9c9.8,0,14.4-4.7,14.4-12.3C953.9,109.7,949.3,105,939.5,105z"/>
	<path class="st0" d="M1087.6,156.1v26.8h-87.5V77.7h85.5v26.8H1035v12.3h44.5v25.6H1035v13.8H1087.6z"/>
	<path class="st0" d="M1170,164.6h-40l-7.1,18.3h-36.1l46-105.2h34.9l46,105.2H1177L1170,164.6z M1160.2,139l-10.2-26.5l-10.2,26.5
		H1160.2z"/>
	<path class="st0" d="M1310.4,182.9l-0.3-48l-22.9,38.5h-15.6l-22.9-36.8v46.3h-32.3V77.7h29.2l34.3,56.1l33.4-56.1h29.2l0.3,105.2
		H1310.4z"/>
</g>
<g>
	<path class="st0" d="M354,266l3.6-8.1c4.5,3.6,11.6,6.2,18.5,6.2c8.7,0,12.4-3.1,12.4-7.3c0-12.1-33.3-4.2-33.3-25
		c0-9,7.2-16.7,22.6-16.7c6.7,0,13.8,1.8,18.6,5l-3.3,8.1c-5-3-10.6-4.4-15.4-4.4c-8.6,0-12.2,3.4-12.2,7.6
		c0,11.9,33.2,4.2,33.2,24.7c0,9-7.3,16.6-22.6,16.6C367.4,272.8,358.7,270,354,266z"/>
	<path class="st0" d="M419.6,224.8h-18.6V216h47.5v8.8H430V272h-10.4V224.8z"/>
	<path class="st0" d="M489.9,259h-28l-5.5,13h-10.7l25.2-56h10.2l25.3,56h-10.9L489.9,259z M486.5,250.8l-10.6-24.5l-10.5,24.5
		H486.5z"/>
	<path class="st0" d="M550.2,272l-11.4-16.4c-0.7,0.1-1.4,0.1-2.2,0.1h-12.6V272h-10.4v-56h23c14.7,0,23.8,7.5,23.8,19.9
		c0,8.5-4.3,14.7-11.9,17.7l12.9,18.4H550.2z M536.1,224.8h-12.2v22.3h12.2c9.1,0,13.8-4.2,13.8-11.2S545.2,224.8,536.1,224.8z"/>
	<path class="st0" d="M582.6,224.8H564V216h47.5v8.8H593V272h-10.4V224.8z"/>
	<path class="st0" d="M661.4,263.2v8.7h-42v-56h40.9v8.7h-30.5v14.6h27v8.6h-27v15.4H661.4z"/>
	<path class="st0" d="M722.7,216v56h-8.6L683.3,234V272H673v-56h8.6l30.9,37.9V216H722.7z"/>
</g>
<path class="st0" d="M246,164.9c-19-13.1-38.2-25.6-57.8-38c-12.5-7.7-18.8-4.7-19.7,9.8l-1.2,38.9c0,11.7-0.2,23.2,0.2,34.7
	c0.3,16.2,5.4,19,20,10.8c19.5-11,38.9-22.1,57.8-34C258.4,179,258.6,173.6,246,164.9z"/>
<path class="st0" d="M203.8,81.2c51.9,0,94.1,42.2,94.1,94.1s-42.2,94.1-94.1,94.1s-94.1-42.2-94.1-94.1S151.9,81.2,203.8,81.2
	 M203.8,62.2c-62.5,0-113.1,50.6-113.1,113.1s50.6,113.1,113.1,113.1s113.1-50.6,113.1-113.1S266.2,62.2,203.8,62.2L203.8,62.2z"/>
</svg>
