<?xml version="1.0" encoding="utf-8"?>
<!-- Generator: $$$/GeneralStr/196=Adobe Illustrator 27.6.0, SVG Export Plug-In . SVG Version: 6.00 Build 0)  -->
<svg version="1.1" id="WhatsApp" xmlns="http://www.w3.org/2000/svg" xmlns:xlink="http://www.w3.org/1999/xlink" x="0px" y="0px"
	 viewBox="0 0 1496.4 350" style="enable-background:new 0 0 1496.4 350;" xml:space="preserve">
<style type="text/css">
	.st0{fill-rule:evenodd;clip-rule:evenodd;fill:#FFFFFF;}
	.st1{fill:#FFFFFF;}
</style>
<g id="WA_Logo">
	<g>
		<path class="st0" d="M284.3,95.4c-21.3-21.4-49.7-33.1-80-33.2c-62.3,0-113.1,50.7-113.1,113.1c0,19.9,5.2,39.4,15.1,56.5
			l-16,58.6l59.9-15.7c16.5,9,35.1,13.8,54,13.8l0,0l0,0c62.3,0,113-50.7,113.1-113.1C317.4,145.2,305.7,116.8,284.3,95.4z
			 M204.3,269.4L204.3,269.4c-16.9,0-33.4-4.5-47.9-13.1l-3.4-2l-35.6,9.3l9.5-34.7l-2.2-3.6c-9.4-15-14.4-32.3-14.4-50
			c0-51.8,42.2-94,94-94c25.1,0,48.7,9.8,66.4,27.6s27.5,41.4,27.5,66.5C298.3,227.2,256.2,269.4,204.3,269.4z M255.9,199
			c-2.8-1.4-16.7-8.2-19.3-9.2c-2.6-0.9-4.5-1.4-6.4,1.4c-1.9,2.8-7.3,9.2-8.9,11.1c-1.6,1.9-3.3,2.1-6.1,0.7
			c-2.8-1.4-11.9-4.4-22.7-14c-8.4-7.5-14.1-16.7-15.7-19.6c-1.6-2.8-0.2-4.4,1.2-5.8c1.3-1.3,2.8-3.3,4.2-5
			c1.4-1.6,1.9-2.8,2.8-4.7c0.9-1.9,0.5-3.5-0.2-4.9s-6.4-15.3-8.7-21c-2.3-5.5-4.6-4.8-6.4-4.9c-1.6-0.1-3.5-0.1-5.4-0.1
			s-4.9,0.7-7.5,3.5s-9.9,9.7-9.9,23.6c0,13.9,10.1,27.3,11.5,29.2s19.9,30.4,48.3,42.7c6.7,2.9,12,4.6,16.1,6
			c6.8,2.2,12.9,1.8,17.8,1.1c5.4-0.8,16.7-6.8,19.1-13.4c2.4-6.6,2.4-12.3,1.6-13.4C260.6,201.1,258.7,200.4,255.9,199z"/>
	</g>
</g>
<g>
	<path class="st1" d="M522.3,77.7l-33.7,105.2h-38l-17-56.2l-17.9,56.2h-38L344.1,77.7h36.5l18.3,59.8l19.4-59.8h32.6l18.3,60.6
		l19.4-60.6H522.3z"/>
	<path class="st1" d="M630.9,77.7v105.2h-35.5v-38.8h-32.8v38.8h-35.5V77.7h35.5v37.3h32.8V77.7H630.9z"/>
	<path class="st1" d="M716.7,164.6h-40l-7.1,18.3h-36.1l46-105.2h34.9l46,105.2h-36.7L716.7,164.6z M707,139l-10.2-26.5L686.5,139
		H707z"/>
	<path class="st1" d="M780.8,105.2h-30.8V77.7h97.1v27.5h-30.8v77.7h-35.5V105.2z"/>
	<path class="st1" d="M846.6,174.5l11.4-25.9c9.9,5.9,23.2,9.6,34.7,9.6c10.1,0,13.7-2.1,13.7-5.7c0-13.2-58.2-2.6-58.2-41.8
		c0-19.5,16.4-35.5,49-35.5c14.1,0,28.7,3,39.7,9.2l-10.7,25.7c-10.4-5.3-20.1-7.8-29.3-7.8c-10.4,0-13.7,3-13.7,6.6
		c0,12.6,58.2,2.1,58.2,40.9c0,19.2-16.4,35.5-49,35.5C874.9,185.3,857.1,180.9,846.6,174.5z"/>
	<path class="st1" d="M1020.7,164.6h-40l-7.1,18.3h-36.1l46-105.2h34.9l46,105.2h-36.7L1020.7,164.6z M1010.9,139l-10.2-26.5
		L990.5,139H1010.9z"/>
	<path class="st1" d="M1165.8,117.4c0,24.4-18.6,39.7-48,39.7h-15.2v25.9h-35.5V77.7h50.7C1147.1,77.7,1165.8,93,1165.8,117.4z
		 M1130,117.4c0-7.7-4.7-12.3-14.4-12.3h-12.9v24.7h12.9C1125.3,129.7,1130,125,1130,117.4z"/>
	<path class="st1" d="M1273,117.4c0,24.4-18.6,39.7-48,39.7h-15.2v25.9h-35.5V77.7h50.7C1254.3,77.7,1273,93,1273,117.4z
		 M1237.2,117.4c0-7.7-4.7-12.3-14.4-12.3h-12.9v24.7h12.9C1232.5,129.7,1237.2,125,1237.2,117.4z"/>
</g>
<g>
	<path class="st1" d="M358.7,216h10.4v56h-10.4V216z"/>
	<path class="st1" d="M434,216v56h-8.6L394.6,234V272h-10.3v-56h8.6l30.9,37.9V216H434z"/>
	<path class="st1" d="M444.3,266l3.6-8.1c4.5,3.6,11.6,6.2,18.5,6.2c8.7,0,12.4-3.1,12.4-7.3c0-12.1-33.3-4.2-33.3-25
		c0-9,7.2-16.7,22.6-16.7c6.7,0,13.8,1.8,18.6,5l-3.3,8.1c-5-3-10.6-4.4-15.4-4.4c-8.6,0-12.2,3.4-12.2,7.6
		c0,11.9,33.2,4.2,33.2,24.7c0,9-7.3,16.6-22.6,16.6C457.7,272.8,449,270,444.3,266z"/>
	<path class="st1" d="M516.7,266l3.6-8.1c4.5,3.6,11.6,6.2,18.5,6.2c8.7,0,12.4-3.1,12.4-7.3c0-12.1-33.3-4.2-33.3-25
		c0-9,7.2-16.7,22.6-16.7c6.7,0,13.8,1.8,18.6,5l-3.3,8.1c-5-3-10.6-4.4-15.4-4.4c-8.6,0-12.2,3.4-12.2,7.6
		c0,11.9,33.2,4.2,33.2,24.7c0,9-7.3,16.6-22.6,16.6C530.1,272.8,521.4,270,516.7,266z"/>
	<path class="st1" d="M582.3,224.8h-18.6V216h47.5v8.8h-18.6V272h-10.4V224.8z"/>
	<path class="st1" d="M617.6,247.6V216H628v31.2c0,11.5,5.2,16.5,14.2,16.5s14.2-5,14.2-16.5V216h10.2v31.6
		c0,16.3-9.2,25.2-24.5,25.2C626.8,272.8,617.6,263.9,617.6,247.6z"/>
	<path class="st1" d="M681.2,216h24.5c18.2,0,30.6,11.2,30.6,28c0,16.8-12.4,28-30.6,28h-24.5V216z M705.2,263.2
		c12.5,0,20.6-7.6,20.6-19.2c0-11.6-8.1-19.2-20.6-19.2h-13.6v38.4H705.2z"/>
	<path class="st1" d="M747.3,216h10.4v56h-10.4V216z"/>
	<path class="st1" d="M768.8,244c0-16.6,12.8-28.8,30.2-28.8s30.2,12.2,30.2,28.8c0,16.6-12.8,28.8-30.2,28.8S768.8,260.5,768.8,244
		z M818.7,244c0-11.4-8.4-19.7-19.7-19.7s-19.7,8.2-19.7,19.7c0,11.4,8.4,19.7,19.7,19.7S818.7,255.4,818.7,244z"/>
	<path class="st1" d="M857.5,266l3.6-8.1c4.5,3.6,11.6,6.2,18.5,6.2c8.7,0,12.4-3.1,12.4-7.3c0-12.1-33.3-4.2-33.3-25
		c0-9,7.2-16.7,22.6-16.7c6.7,0,13.8,1.8,18.6,5l-3.3,8.1c-5-3-10.6-4.4-15.4-4.4c-8.6,0-12.2,3.4-12.2,7.6
		c0,11.9,33.2,4.2,33.2,24.7c0,9-7.3,16.6-22.6,16.6C870.9,272.8,862.2,270,857.5,266z"/>
	<path class="st1" d="M954.6,263.2v8.7h-42v-56h40.9v8.7H923v14.6h27v8.6h-27v15.4H954.6z"/>
	<path class="st1" d="M1015.9,216v56h-8.6L976.5,234V272h-10.3v-56h8.6l30.9,37.9V216H1015.9z"/>
	<path class="st1" d="M1031,216h24.5c18.2,0,30.6,11.2,30.6,28c0,16.8-12.4,28-30.6,28H1031V216z M1055,263.2
		c12.5,0,20.6-7.6,20.6-19.2c0-11.6-8.1-19.2-20.6-19.2h-13.6v38.4H1055z"/>
	<path class="st1" d="M1139.1,263.2v8.7h-42v-56h40.9v8.7h-30.5v14.6h27v8.6h-27v15.4H1139.1z"/>
	<path class="st1" d="M1200.4,216v56h-8.6L1161,234V272h-10.3v-56h8.6l30.9,37.9V216H1200.4z"/>
</g>
</svg>
