<?xml version="1.0" encoding="utf-8"?>
<!-- Generator: $$$/GeneralStr/196=Adobe Illustrator 27.6.0, SVG Export Plug-In . SVG Version: 6.00 Build 0)  -->
<svg version="1.1" id="Xmas" xmlns="http://www.w3.org/2000/svg" xmlns:xlink="http://www.w3.org/1999/xlink" x="0px" y="0px"
	 viewBox="0 0 1496.4 350" style="enable-background:new 0 0 1496.4 350;" xml:space="preserve">
<style type="text/css">
	.st0{fill:#FFFFFF;}
</style>
<g>
	<path class="st0" d="M225.4,169.6c-9.3-6.4-18.7-12.5-28.3-18.6c-6.1-3.7-9.2-2.3-9.6,4.8l-0.6,19c0,5.7-0.1,11.3,0.1,17
		c0.2,7.9,2.6,9.3,9.8,5.3c9.5-5.4,19-10.8,28.3-16.6C231.5,176.5,231.6,173.8,225.4,169.6z"/>
	<path class="st0" d="M300.7,127.7c2.3-1.4,4-3,4.5-5.7c0-0.5,0-0.9,0-1.4c-0.2-0.6-0.3-1.1-0.5-1.7c-1.4-4-5.9-6-9.5-4.1
		c-5.3,2.7-10.4,5.7-15.6,8.6c-3.2,1.8-6.6,3.6-9.8,5.4c-0.4,0.3-0.9,0.4-1.4,0.7c0.2-2.8,0.3-5.5,0.5-8.1c0.4-6,0.9-12.2,1.3-18.2
		c0.2-4-2-6.6-6-7.4c-3.3-0.7-7.7,2.5-7.9,5.8c-0.9,10.7-2,21.4-2.8,32.1c-0.2,2.1-0.3,3.4-0.7,4.3c-9.6-12.7-24-21.6-40.5-23.9
		c0.2-0.2,0.3-0.3,0.5-0.4c8.9-6.2,17.9-12.5,26.7-18.8c0.9-0.7,1.9-1.4,2.7-2c2.2-1.8,3-4.3,2.1-7.1c-0.9-2.8-3.2-4.8-6-5
		c-1.5-0.2-2.9,0.2-4.2,1c-6.3,4.3-12.7,8.5-19,12.8c-1.2,0.8-2.3,1.6-3.7,2.5c0-0.7-0.1-1.1-0.1-1.4c-0.1-7.8-0.2-15.4-0.3-23.2
		c0-2.1-0.1-4.3-0.3-6.4c-0.2-2.7-2.1-5-4.8-5.8c-0.3-0.1-0.6-0.2-0.9-0.3c-1,0-2,0-3.1,0c-0.3,0.2-0.6,0.3-0.9,0.4
		c-2.2,1.3-3.9,2.9-4,5.7c-0.1,1.7-0.2,3.4-0.3,5.1c-0.2,8.1-0.3,16.3-0.4,24.4c0,0.4-0.1,0.9-0.1,1.4c-0.5-0.3-0.9-0.6-1.3-0.9
		c-7-4.8-14.1-9.6-21.1-14.4c-2.9-2-7.3-0.9-9.4,2c-2,3-1.4,7.2,1.4,9.5c0.9,0.7,1.8,1.4,2.7,2c8.8,6.1,17.6,12.4,26.4,18.5
		c0.2,0.2,0.4,0.3,0.6,0.4c-16.5,2.1-31,11-40.7,23.6c-0.3-2.9-0.6-5.9-0.9-8.8c-0.8-8.9-1.6-17.9-2.4-26.8
		c-0.3-3.8-3.7-6.5-7.6-6.2c-3.5,0.3-6.6,3.5-6.4,7.1c0.4,7.2,1,14.5,1.5,21.7c0.1,1.7,0.3,3.4,0.4,5.4c-0.7-0.3-1.2-0.6-1.6-0.9
		c-6.1-3.5-12.4-7-18.5-10.4c-2.6-1.4-5.1-2.8-7.8-3.9c-4.8-1.8-9.2,1.6-9,6.6c0.1,2.9,1.4,4.8,3.9,6.2c8.1,4.7,16,9.5,24.1,14.3
		c0.3,0.3,0.7,0.4,1.2,0.8c-0.6,0.3-1,0.6-1.4,0.9c-3.7,1.8-7.4,3.6-11.1,5.5c-4.1,2-8.1,4.2-12.1,6.3c-2.5,1.4-3.2,3.6-2.9,6.3
		c0.5,3.9,4.3,7.7,9,5.8c1.3-0.5,2.6-1,3.9-1.6c9.8-4.6,19.6-9.2,29.4-13.8c0.1-0.1,0.3-0.1,0.3-0.2c-2.8,7.1-4.4,14.7-4.4,22.7
		c0,8.7,1.9,17,5.1,24.5c-0.3,0.1-0.7,0-1.1-0.2c-6.3-3-12.6-6-19-9c-4.7-2.2-9.5-4.3-14.2-6.3c-3.2-1.4-6.9,0.4-8.4,3.7
		c-1.5,3.2-0.4,7,2.7,8.8c1.4,0.9,2.8,1.5,4.3,2.3c6.2,3.1,12.4,6.1,18.7,9.2c0.4,0.2,0.9,0.5,1.4,0.9c-0.9,0.5-1.4,0.9-2.1,1.3
		c-8.1,4.9-16.2,9.7-24.3,14.7c-2.6,1.5-3.5,4.1-2.9,7.2c0.5,2.6,2.7,4.7,5.3,5.3c2.4,0.6,4.3-0.3,6.3-1.4
		c7.9-4.4,15.8-8.9,23.7-13.2c0.5-0.3,1.1-0.6,1.8-0.9c0,0.5,0,0.9,0,1.1c-0.3,4.3-0.7,8.7-1,13c-0.3,4.4-0.7,8.8-0.9,13.2
		c-0.1,3.4,2.9,6.3,6.4,6.6c3.6,0.2,7.2-2.6,7.6-5.9c0.6-6.1,1.1-12.3,1.6-18.4c0.5-5.8,1.1-11.5,1.5-17.3c0.1-0.6,0.3-0.9,0.5-1.3
		c9.7,12.4,24,20.9,40.3,23c0,1-0.4,1.6-1.2,2.1c-3.5,2.4-7,4.9-10.5,7.3c-6.1,4.4-12.3,8.9-18.4,13.2c-2.5,1.8-2.6,4.3-2,7
		c0.7,2.7,2.6,4.3,5.3,4.9c2.4,0.5,4.4-0.4,6.3-1.7c6.6-4.4,13.1-8.9,19.7-13.5c0.3-0.3,0.8-0.5,1.4-0.9c0,3.1-0.1,5.9,0,8.6
		c0.2,7.3,0.3,14.7,0.5,22.1c0.1,1.9,0.3,3.7,1.7,5.1c2.7,2.8,8.6,2.6,11-0.9c0.9-1.3,1-2.6,1-4c0.2-8.6,0.3-17.2,0.5-25.7
		c0-1.5,0.2-3.2,0.3-4.9c1.4,0.9,2.6,1.6,3.7,2.4c6.2,4.2,12.4,8.4,18.6,12.5c3.2,2.1,8,0.8,9.7-2.7c1.4-2.9,0.9-6.9-2-8.9
		c-9.7-6.7-19.3-13.5-29-20.3c-0.6-0.4-0.9-0.9-0.9-1.6v-0.1c16.4-2.1,30.8-10.7,40.5-23.1c0.3,0.3,0.5,0.9,0.6,1.4
		c0.5,5.4,1.1,10.7,1.6,16.1c0.7,6.6,1.3,13.1,1.9,19.7c0.2,1.4,0.6,2.5,1.5,3.5c2,2.1,5.2,3,7.7,2c2.9-1.1,4.6-3.7,4.5-6.9
		c0-0.9-0.1-1.6-0.1-2.5c-0.5-6.7-1-13.5-1.5-20.2c-0.1-1.3-0.2-2.6-0.3-4.1c0.6,0.3,0.9,0.5,1.4,0.7c6.6,3.7,13,7.4,19.6,11.1
		c2,1.1,4,2.2,6,3.2c3.1,1.4,6.9,0.4,8.6-2c2.4-3.2,1.7-7.7-1.5-10.1c-0.6-0.4-1.1-0.9-1.8-1.2c-7-4.2-14-8.3-21-12.5
		c-1.2-0.7-2.4-1.4-3.7-2.3c2-0.9,3.8-1.8,5.6-2.7c6.4-3.2,12.8-6.2,19.2-9.5c3.1-1.6,4-5.5,2.5-8.9c-1.2-2.6-5.9-4.9-8.6-3.6
		c-10.8,5.2-21.8,10.1-32.7,15.2c-0.6,0.3-1.1,0.3-1.6,0.2c3.2-7.5,5.1-15.8,5.1-24.4c0-8-1.5-15.7-4.3-22.7c0.3,0,0.8,0.1,1.1,0.3
		c7.8,3.7,15.8,7.4,23.6,11.1c3.4,1.5,6.9,2.9,10.4,4.2c0.9,0.3,2.1,0.3,3,0c2.6-0.9,4.4-2.6,4.8-5.5c0.3-3.1-0.3-5.6-3.3-7.2
		c-1.3-0.6-2.5-1.4-3.7-2c-3.7-1.8-7.4-3.6-11.2-5.4c-3.1-1.5-6.1-3-9.4-4.6c0.6-0.4,1.1-0.8,1.5-1
		C285.1,137,292.8,132.4,300.7,127.7z M149.5,146.2C149.5,146.2,149.5,146.2,149.5,146.2C149.5,146.2,149.5,146.2,149.5,146.2z
		 M150.2,204.2L150.2,204.2C150.2,204.3,150.2,204.3,150.2,204.2z M153.2,209.1c0.1,0.1,0.2,0.2,0.2,0.3
		C153.3,209.3,153.2,209.2,153.2,209.1z M199.5,235.6c0.2,0,0.4,0,0.6,0C199.8,235.7,199.6,235.7,199.5,235.6z M203.6,223
		c-26.7,0-48.4-21.7-48.4-48.4c0-26.7,21.7-48.4,48.4-48.4c26.7,0,48.4,21.7,48.4,48.4C252,201.3,230.3,223,203.6,223z M253,210.7
		c0.1-0.1,0.1-0.2,0.2-0.2C253,210.6,253,210.6,253,210.7z"/>
</g>
<g>
	<path class="st0" d="M417.7,182.9l-18.2-28.1l-17.7,28.1h-40.4l38-53.1l-36.7-52.2h39.8l17.9,26.5l17.4-26.5H456l-36.5,50.8
		l38.8,54.4H417.7z"/>
	<path class="st0" d="M457.1,126.7h45.1v25.6h-45.1V126.7z"/>
	<path class="st0" d="M608.5,182.9l-0.3-48l-22.9,38.5h-15.6l-22.9-36.8v46.3h-32.3V77.7h29.2l34.3,56.1l33.4-56.1h29.2l0.3,105.2
		H608.5z"/>
	<path class="st0" d="M726.6,164.6h-40l-7.1,18.3h-36.1l46-105.2h34.9l46,105.2h-36.7L726.6,164.6z M716.9,139l-10.2-26.5L696.4,139
		H716.9z"/>
	<path class="st0" d="M766.5,174.5l11.4-25.9c9.9,5.9,23.2,9.6,34.7,9.6c10.1,0,13.7-2.1,13.7-5.7c0-13.2-58.2-2.6-58.2-41.8
		c0-19.5,16.4-35.5,49-35.5c14.1,0,28.7,3,39.7,9.2l-10.7,25.7c-10.4-5.3-20.1-7.8-29.3-7.8c-10.4,0-13.7,3-13.7,6.6
		c0,12.6,58.2,2.1,58.2,40.9c0,19.2-16.4,35.5-49,35.5C794.7,185.3,777,180.9,766.5,174.5z"/>
	<path class="st0" d="M956,156.4h-9.6v26.5H911V77.7h50.7c29.3,0,48,15.3,48,39.7c0,15.2-7.2,26.6-19.8,33.1l22.1,32.5h-37.9
		L956,156.4z M959.4,105h-12.9v24.7h12.9c9.8,0,14.4-4.7,14.4-12.3C973.8,109.7,969.1,105,959.4,105z"/>
	<path class="st0" d="M1015.7,130.3c0-31.9,25.1-55,59.4-55c34.3,0,59.4,23.2,59.4,55c0,31.9-25.1,55-59.4,55
		C1040.8,185.3,1015.7,162.1,1015.7,130.3z M1098.7,130.3c0-16.4-10.5-26.3-23.6-26.3c-13.1,0-23.6,9.9-23.6,26.3
		c0,16.4,10.5,26.3,23.6,26.3C1088.2,156.6,1098.7,146.7,1098.7,130.3z"/>
	<path class="st0" d="M1140.2,130.3c0-32.3,24.8-55,58.6-55c20.6,0,36.8,7.5,47.2,21l-22.4,20c-6.2-7.8-13.5-12.3-23-12.3
		c-14.7,0-24.7,10.2-24.7,26.3c0,16.1,9.9,26.3,24.7,26.3c9.5,0,16.8-4.5,23-12.3l22.4,20c-10.4,13.5-26.6,21-47.2,21
		C1165,185.3,1140.2,162.6,1140.2,130.3z"/>
	<path class="st0" d="M1296.1,148l-8,8.9v26h-34.9V77.7h34.9v38.2l34.6-38.2h38.6l-42.1,46.3l44.2,58.9h-41L1296.1,148z"/>
</g>
<g>
	<path class="st0" d="M354,266l3.6-8.1c4.5,3.6,11.6,6.2,18.5,6.2c8.7,0,12.4-3.1,12.4-7.3c0-12.1-33.3-4.2-33.3-25
		c0-9,7.2-16.7,22.6-16.7c6.7,0,13.8,1.8,18.6,5l-3.3,8.1c-5-3-10.6-4.4-15.4-4.4c-8.6,0-12.2,3.4-12.2,7.6
		c0,11.9,33.2,4.2,33.2,24.7c0,9-7.3,16.6-22.6,16.6C367.4,272.8,358.7,270,354,266z"/>
	<path class="st0" d="M419.6,224.8h-18.6V216h47.5v8.8H430V272h-10.4V224.8z"/>
	<path class="st0" d="M493.1,272l-11.4-16.4c-0.7,0.1-1.4,0.1-2.2,0.1h-12.6V272h-10.4v-56h23c14.7,0,23.8,7.5,23.8,19.9
		c0,8.5-4.3,14.7-11.9,17.7l12.9,18.4H493.1z M479,224.8h-12.2v22.3H479c9.1,0,13.8-4.2,13.8-11.2S488.1,224.8,479,224.8z"/>
	<path class="st0" d="M556.9,263.2v8.7h-42v-56h40.9v8.7h-30.5v14.6h27v8.6h-27v15.4H556.9z"/>
	<path class="st0" d="M604.8,259h-28l-5.5,13h-10.7l25.2-56H596l25.3,56h-10.9L604.8,259z M601.4,250.8l-10.6-24.5l-10.5,24.5H601.4
		z"/>
	<path class="st0" d="M679.9,272l-0.1-37.1l-18.4,30.7h-4.6l-18.4-30.2V272h-9.9v-56h8.6l22.2,37.1l21.8-37.1h8.6l0.1,56H679.9z"/>
	<path class="st0" d="M722.2,266l3.6-8.1c4.5,3.6,11.6,6.2,18.5,6.2c8.7,0,12.4-3.1,12.4-7.3c0-12.1-33.3-4.2-33.3-25
		c0-9,7.2-16.7,22.6-16.7c6.7,0,13.8,1.8,18.6,5l-3.3,8.1c-5-3-10.6-4.4-15.4-4.4c-8.6,0-12.2,3.4-12.2,7.6
		c0,11.9,33.2,4.2,33.2,24.7c0,9-7.3,16.6-22.6,16.6C735.5,272.8,726.8,270,722.2,266z"/>
	<path class="st0" d="M787.8,224.8h-18.6V216h47.5v8.8h-18.6V272h-10.4V224.8z"/>
	<path class="st0" d="M858.1,259h-28l-5.5,13h-10.7l25.2-56h10.2l25.3,56h-10.9L858.1,259z M854.7,250.8l-10.6-24.5l-10.5,24.5
		H854.7z"/>
	<path class="st0" d="M918.3,272l-11.4-16.4c-0.7,0.1-1.4,0.1-2.2,0.1h-12.6V272h-10.4v-56h23c14.7,0,23.8,7.5,23.8,19.9
		c0,8.5-4.3,14.7-11.9,17.7l12.9,18.4H918.3z M904.3,224.8h-12.2v22.3h12.2c9.1,0,13.8-4.2,13.8-11.2S913.4,224.8,904.3,224.8z"/>
	<path class="st0" d="M950.7,224.8h-18.6V216h47.5v8.8h-18.6V272h-10.4V224.8z"/>
	<path class="st0" d="M1029.5,263.2v8.7h-42v-56h40.9v8.7h-30.5v14.6h27v8.6h-27v15.4H1029.5z"/>
	<path class="st0" d="M1090.9,216v56h-8.6l-30.9-37.9V272h-10.3v-56h8.6l30.9,37.9V216H1090.9z"/>
</g>
</svg>
